<?xml version="1.0" encoding="utf-8"?>
<!-- Generator: Adobe Illustrator 27.1.0, SVG Export Plug-In . SVG Version: 6.00 Build 0)  -->
<svg version="1.1" id="Layer_1" xmlns="http://www.w3.org/2000/svg" xmlns:xlink="http://www.w3.org/1999/xlink" x="0px" y="0px"
	 viewBox="0 0 166.47 164.4" style="enable-background:new 0 0 166.47 164.4;" xml:space="preserve">
<style type="text/css">
	.st0{fill:#FFFFFF;}
	.st1{display:none;}
	.st2{display:inline;}
	.st3{fill:#41474F;}
	.st4{fill:#036AAA;}
	.st5{fill-rule:evenodd;clip-rule:evenodd;fill:#41474F;}
	.st6{fill-rule:evenodd;clip-rule:evenodd;fill:#036AAA;}
	.st7{fill:#050505;}
	.st8{opacity:0.2;fill:#1B558A;}
	
		.st9{clip-path:url(#SVGID_00000088834448136115378510000018359997546417365949_);fill:url(#SVGID_00000045593876346271428590000016006922752753096106_);}
	.st10{fill:#333333;}
	.st11{fill:#0E4681;}
	.st12{fill:none;stroke:#318DCC;stroke-width:4;stroke-miterlimit:10;}
	.st13{fill:#38434B;}
	.st14{fill:url(#SVGID_00000160878769154511415170000009609708725789930421_);}
	.st15{fill:url(#SVGID_00000176749813968120370470000017817777821872453785_);}
	.st16{fill:url(#SVGID_00000127739561878883600910000011700494333697571461_);}
	.st17{fill:#B6D6EF;}
	.st18{fill:#FCFDFD;}
	.st19{fill:#F9FAFB;}
	.st20{fill:#F6F8F8;}
	.st21{fill:#F3F5F6;}
	.st22{fill:#F0F3F4;}
	.st23{fill:#EDF0F2;}
	.st24{fill:#EAEEF0;}
	.st25{fill:#E7EBEE;}
	.st26{fill:#E4E9EB;}
	.st27{fill:#E1E6E9;}
	.st28{fill:#DEE4E7;}
	.st29{fill:#DBE1E5;}
	.st30{fill:#D8DFE3;}
	.st31{fill:#D5DCE1;}
	.st32{fill:#D2DADE;}
	.st33{fill:#CFD7DC;}
	.st34{fill:#CCD5DA;}
	.st35{fill:#C9D2D8;}
	.st36{fill:#C6D0D6;}
	.st37{fill:#C3CDD4;}
	.st38{fill:#C0CBD1;}
	.st39{fill:#BDC8CF;}
	.st40{fill:#BAC6CD;}
	.st41{fill:url(#SVGID_00000086689581043087213810000005918598330850127502_);}
	.st42{fill:#E3F2FD;}
	.st43{fill:url(#SVGID_00000040562272787472048970000018215314244976752817_);}
	.st44{fill:#C2185B;}
	.st45{fill:url(#SVGID_00000171001238279802150920000004234278621150214543_);}
	.st46{fill:#CFD8DC;}
	.st47{fill:#EFF9FF;}
	.st48{fill:url(#SVGID_00000028305431243569644740000008963022858961800359_);}
	.st49{fill:url(#SVGID_00000034091425580226928100000005416034997020249004_);}
	.st50{fill:url(#SVGID_00000001646941091351402330000010250218524755641999_);}
	.st51{fill:url(#SVGID_00000088814328875150269430000018384518005426822315_);}
	.st52{fill:url(#SVGID_00000049201477822892257800000007879222420165616517_);}
	.st53{fill:#B0BEC5;}
	.st54{fill:url(#SVGID_00000131352418141472719880000007017418813029601943_);}
	.st55{fill:#FFB6A9;}
	.st56{fill:url(#SVGID_00000070839409535947324620000013830305442768796082_);}
	.st57{fill:url(#SVGID_00000042713606273256769900000012023668497649003917_);}
	.st58{fill:#FEFEFE;}
	.st59{fill:#FBFBFC;}
	.st60{fill:#F8F9FA;}
	.st61{fill:#F5F6F7;}
	.st62{fill:#F2F4F5;}
	.st63{fill:#EFF2F3;}
	.st64{fill:#ECEFF1;}
	.st65{fill:#E9EDEF;}
	.st66{fill:#E7ECEE;}
	.st67{fill:#E6EAED;}
	.st68{fill:#E3E8EA;}
	.st69{fill:#E1E7E9;}
	.st70{fill:#E0E5E8;}
	.st71{fill:#DDE3E6;}
	.st72{fill:url(#SVGID_00000098920756842116099420000003020617311493556096_);}
	.st73{fill:url(#SVGID_00000075161079949883889090000000832745415879881107_);}
	.st74{fill:url(#SVGID_00000181770377987398450040000004226901037573139607_);}
	.st75{fill:url(#SVGID_00000065036734901200603140000006058550807487031735_);}
	.st76{opacity:0.5;fill:#FFFFFF;}
	.st77{fill:url(#SVGID_00000015322891832274497630000009224006993498643134_);}
	.st78{fill:url(#SVGID_00000177484251489459810140000015450090900764169908_);}
	.st79{fill:url(#SVGID_00000055671962639616106540000015638112960810364588_);}
	.st80{fill:#FBFCFC;}
	.st81{fill:#F7F8F9;}
	.st82{fill:#EBEFF0;}
	.st83{fill:#E3E8EB;}
	.st84{fill:#DFE5E8;}
	.st85{fill:#DBE2E5;}
	.st86{fill:#D7DEE2;}
	.st87{fill:#D3DBDF;}
	.st88{fill:#D0D8DC;}
	.st89{fill:#CCD5D9;}
	.st90{fill:#C8D1D6;}
	.st91{fill:#C4CED3;}
	.st92{fill:#C0CBD0;}
	.st93{fill:#BCC8CD;}
	.st94{fill:#B8C4CB;}
	.st95{fill:#B4C1C8;}
	.st96{fill:#ACBBC2;}
	.st97{fill:#A8B7BF;}
	.st98{fill:#A4B4BC;}
	.st99{fill:#FEFCFC;}
	.st100{fill:#FCFAF9;}
	.st101{fill:#FBF7F6;}
	.st102{fill:#F9F4F3;}
	.st103{fill:#F8F1F0;}
	.st104{fill:#F6EFED;}
	.st105{fill:#F5ECEA;}
	.st106{fill:#F4E9E7;}
	.st107{fill:#F2E6E4;}
	.st108{fill:#F1E4E1;}
	.st109{fill:#EFE1DE;}
	.st110{fill:#EEDEDB;}
	.st111{fill:#ECDBD8;}
	.st112{fill:#EBD9D5;}
	.st113{fill:#E9D6D2;}
	.st114{fill:#E8D3CF;}
	.st115{fill:#E7D0CC;}
	.st116{fill:#E5CEC9;}
	.st117{fill:#E4CBC6;}
	.st118{fill:#E2C8C3;}
	.st119{fill:#E1C5C0;}
	.st120{fill:#DFC3BD;}
	.st121{fill:#DEC0BA;}
	.st122{fill:#FEFDFD;}
	.st123{fill:#FDFCFB;}
	.st124{fill:#FCFAFA;}
	.st125{fill:#FBF8F8;}
	.st126{fill:#FAF7F6;}
	.st127{fill:#F9F5F4;}
	.st128{fill:#F8F3F3;}
	.st129{fill:#F7F2F1;}
	.st130{fill:#F6F0EF;}
	.st131{fill:#F5EEED;}
	.st132{fill:#F4EDEB;}
	.st133{fill:#F3EBEA;}
	.st134{fill:#F2EAE8;}
	.st135{fill:#F1E8E6;}
	.st136{fill:#F0E6E4;}
	.st137{fill:#EFE5E2;}
	.st138{fill:#EEE3E1;}
	.st139{fill:#EDE1DF;}
	.st140{fill:#ECE0DD;}
	.st141{fill:#EBDEDB;}
	.st142{fill:#EADCDA;}
	.st143{fill:#E9DBD8;}
	.st144{fill:#E8D9D6;}
	.st145{fill:url(#SVGID_00000008107701163756415290000003029913047611727032_);}
	.st146{fill:url(#SVGID_00000141434399658524326000000016241222623994157714_);}
	.st147{fill:url(#SVGID_00000095304249952555066440000011842991326137264775_);}
	.st148{fill:url(#SVGID_00000015313725343125846220000006552979721585969025_);}
	.st149{fill:#FCF9F9;}
	.st150{fill:#F9F4F4;}
	.st151{fill:#F6EEEE;}
	.st152{fill:#F4E8E8;}
	.st153{fill:#F1E3E3;}
	.st154{fill:#EEDDDD;}
	.st155{fill:#EBD7D7;}
	.st156{fill:#E8D2D2;}
	.st157{fill:#E5CCCC;}
	.st158{fill:#E2C6C6;}
	.st159{fill:#DFC1C1;}
	.st160{fill:#DDBBBB;}
	.st161{fill:#DAB6B6;}
	.st162{fill:#D7B0B0;}
	.st163{fill:#D4AAAA;}
	.st164{fill:#D1A5A5;}
	.st165{fill:#CE9F9F;}
	.st166{fill:#CB9999;}
	.st167{fill:#C89494;}
	.st168{fill:#C68E8E;}
	.st169{fill:#C38888;}
	.st170{fill:#C08383;}
	.st171{fill:#BD7D7D;}
	.st172{fill:url(#SVGID_00000032638276387316607360000013200763796777311622_);}
	.st173{fill:url(#SVGID_00000163767819761154799800000002021989422340804502_);}
	.st174{fill:#FDFBFA;}
	.st175{fill:#F8F2F1;}
	.st176{fill:#F6EEED;}
	.st177{fill:#F4EAE8;}
	.st178{fill:#F2E6E3;}
	.st179{fill:#F0E1DF;}
	.st180{fill:#EEDDDA;}
	.st181{fill:#EBD9D6;}
	.st182{fill:#E9D5D1;}
	.st183{fill:#E7D1CC;}
	.st184{fill:#E5CCC8;}
	.st185{fill:#E3C8C3;}
	.st186{fill:#E1C4BE;}
	.st187{fill:#DCBCB5;}
	.st188{fill:#DAB7B1;}
	.st189{fill:#D8B3AC;}
	.st190{fill:#D6AFA7;}
	.st191{fill:#D4ABA3;}
	.st192{fill:#D1A69E;}
	.st193{fill:#CFA29A;}
	.st194{fill:#CD9E95;}
	.st195{fill:url(#SVGID_00000030483286899744888210000000849141313721805218_);}
	.st196{fill:url(#SVGID_00000068670111248939844750000004703070716006268596_);}
	.st197{fill:url(#SVGID_00000124854594377730516920000002855403430389185429_);}
	.st198{fill:url(#SVGID_00000094590344083479851690000016384196452047447190_);}
	.st199{fill:url(#SVGID_00000041286025445637319110000000593896460880546466_);}
	.st200{fill:url(#SVGID_00000129180977388304206440000013659604013974080650_);}
	.st201{fill:url(#SVGID_00000110467850494276869280000010044155455857899395_);}
	.st202{fill:url(#SVGID_00000153677077499600045340000016370983532866377388_);}
	.st203{fill:url(#SVGID_00000170980390381868152870000017662427817174229130_);}
	.st204{fill:url(#SVGID_00000012440687257394020140000016617907955420065200_);}
	.st205{fill:url(#SVGID_00000037689827010435001260000001605785550792786603_);}
	.st206{fill:url(#SVGID_00000150095396742749060750000007422574025594566057_);}
	.st207{fill:url(#SVGID_00000159434521250703565480000013067797276810141367_);}
	.st208{fill:#FB8C00;}
	.st209{fill:url(#SVGID_00000152964881965805946730000000283889141240169100_);}
	.st210{fill:url(#SVGID_00000084527685091499687830000015477632709661905540_);}
	.st211{fill:url(#SVGID_00000129197319202250152970000010313087618691129501_);}
	.st212{fill:#D7CCC8;}
	.st213{fill:url(#SVGID_00000031900104592223306050000002720743235517762487_);}
	.st214{fill:#231F20;}
	.st215{fill:url(#SVGID_00000136383317868520790710000002175042182801459862_);}
	.st216{fill:url(#SVGID_00000114061035601544310450000009869772515436255141_);}
	.st217{fill:url(#SVGID_00000002345474968809839760000010381885894822387351_);}
	.st218{fill:url(#SVGID_00000021095074353880372880000008125825856153980802_);}
	.st219{fill:url(#SVGID_00000021082212761225865250000001241595031855111608_);}
	.st220{fill:url(#SVGID_00000009550672921060634700000001257118093859384505_);}
	.st221{fill:#FCFCFD;}
	.st222{fill:#F8FAFA;}
	.st223{fill:#F5F7F8;}
	.st224{fill:#EEF2F3;}
	.st225{fill:#E8ECEE;}
	.st226{fill:#E5E9EC;}
	.st227{fill:#DBE1E4;}
	.st228{fill:#D7DFE2;}
	.st229{fill:#D4DCDF;}
	.st230{fill:#D1D9DD;}
	.st231{fill:#CDD7DA;}
	.st232{fill:#CAD4D8;}
	.st233{fill:#C7D1D6;}
	.st234{fill:#C0CCD1;}
	.st235{fill:#BDC9CE;}
	.st236{fill:#BAC6CC;}
	.st237{fill:#B6C4C9;}
	.st238{fill:#B3C1C7;}
	.st239{fill:#DC655A;}
	.st240{fill:url(#SVGID_00000111911258362060595670000011932088067296065952_);}
	.st241{fill:url(#SVGID_00000141437032625851619380000015696697244543306886_);}
	.st242{fill:url(#SVGID_00000057846636944809364550000004264247549029407935_);}
	.st243{fill:url(#SVGID_00000104692088549998438290000012007921365482409149_);}
	.st244{fill:url(#SVGID_00000054974330919989244030000005479956036831139007_);}
	.st245{fill:url(#SVGID_00000057138558687419775000000004462580919631493534_);}
	.st246{fill:url(#SVGID_00000064330739971337180020000015744288634881938330_);}
	.st247{fill:url(#SVGID_00000160183279968534278100000007655821605860097695_);}
	.st248{fill:url(#SVGID_00000067234239675363186380000002832368719252560540_);}
	.st249{fill:url(#SVGID_00000165953907133172722730000003097928134729155718_);}
	.st250{fill:url(#SVGID_00000082353821555260775780000001804321151588613257_);}
	.st251{fill:url(#SVGID_00000120520860722761728550000016791144485318252979_);}
	.st252{fill:url(#SVGID_00000163790306512006722910000008035711353299433887_);}
	.st253{fill:url(#SVGID_00000108292854044006546150000012491963561017879224_);}
	.st254{fill:url(#SVGID_00000115504493808839715420000016793999993829403059_);}
	.st255{fill:url(#SVGID_00000163055488886360004780000001325072247903604651_);}
	.st256{fill:url(#SVGID_00000090269416315698890080000004762428260109713811_);}
	.st257{fill:url(#SVGID_00000024689683971462091410000004075323156819061416_);}
	.st258{fill:#F4F6F7;}
	.st259{fill:#E5EAEC;}
	.st260{fill:#E2E7EA;}
	.st261{fill:#DAE1E4;}
	.st262{fill:#D3DCDF;}
	.st263{fill:#D0D9DD;}
	.st264{fill:#CCD6DA;}
	.st265{fill:#C8D3D7;}
	.st266{fill:#C5D0D5;}
	.st267{fill:#C1CDD2;}
	.st268{fill:#BDCACF;}
	.st269{fill:#BAC7CD;}
	.st270{fill:#B6C4CA;}
	.st271{fill:#B2C1C7;}
	.st272{fill:#AFBEC5;}
	.st273{fill:#ABBBC2;}
	.st274{fill:url(#SVGID_00000025421440105230724900000014622278046244710814_);}
	.st275{fill:url(#SVGID_00000076604680942017554320000000639790188074354820_);}
	.st276{fill:url(#SVGID_00000089575265582857658690000008564191016844674724_);}
	.st277{fill:url(#SVGID_00000054970825785508393350000012281411559261151104_);}
	.st278{fill:url(#SVGID_00000156588706238473844960000017588379116460101260_);}
	.st279{fill:url(#SVGID_00000106835577025803910930000006996612009539362441_);}
	.st280{fill:url(#SVGID_00000003813350765171184820000006580235591581077914_);}
	.st281{fill:url(#SVGID_00000100362272543492626940000010059006354054200718_);}
	.st282{fill:url(#SVGID_00000095320077408503829750000008785757491711162029_);}
	.st283{fill:url(#SVGID_00000061455654324663018740000016054128834117198249_);}
	.st284{fill:url(#SVGID_00000037694878617177075450000004560601025807673519_);}
	.st285{fill:url(#SVGID_00000025434926096644433070000001718212777325861295_);}
	.st286{fill:url(#SVGID_00000039119533189817837710000004195617926920182201_);}
	.st287{fill:url(#SVGID_00000013172566342984380760000015385007951190926465_);}
	.st288{fill:url(#SVGID_00000115474180633408897050000012798314959457708439_);}
	.st289{fill:url(#SVGID_00000150086684281224773500000009373165017193506215_);}
	.st290{fill:url(#SVGID_00000150802839811107692160000017143051453210960042_);}
	.st291{fill:url(#SVGID_00000084506442697739875880000016524408334271349928_);}
	.st292{fill:none;}
	.st293{fill:url(#SVGID_00000103246465935020535680000011508991739079179928_);}
	.st294{fill:#FFFFFF;fill-opacity:0.36;}
	.st295{fill:url(#SVGID_00000128476402617299374180000013466908778466335146_);}
	.st296{fill:url(#SVGID_00000176724918400332735520000000693391811532820902_);}
	.st297{fill:url(#SVGID_00000051372057798486328980000003875275441957220794_);}
	.st298{fill:url(#SVGID_00000172442336569871369140000017713896008906501817_);}
	.st299{fill:url(#SVGID_00000111873335318165052150000000929185382012447155_);}
	.st300{fill:url(#SVGID_00000119108827874141389010000016257435255082577837_);}
	.st301{fill:url(#SVGID_00000014614264645108795910000014852218208724683420_);}
	.st302{fill:url(#SVGID_00000028286694313308901440000009423468129334825601_);}
	.st303{fill:url(#SVGID_00000034783688973815260910000008958967209323707009_);}
	.st304{fill:url(#SVGID_00000086678934657913472650000015895625405684278972_);}
	.st305{fill:url(#SVGID_00000080197898983698608770000013968164865078316422_);}
	.st306{fill:url(#SVGID_00000070096017954173114510000012138902522577437589_);}
	.st307{fill:url(#SVGID_00000134211478484779383050000016221072258910079381_);}
	.st308{fill:url(#SVGID_00000073001726968913508930000013603098530830349988_);}
	.st309{fill:#EEF1F3;}
	.st310{fill:#E6EBED;}
	.st311{fill:#DAE0E4;}
	.st312{fill:#D6DDE1;}
	.st313{fill:#CDD6DA;}
	.st314{fill:#C9D3D7;}
	.st315{fill:#C5D0D4;}
	.st316{fill:#C1CCD1;}
	.st317{fill:#B9C5CB;}
	.st318{fill:#B5C2C8;}
	.st319{fill:#B1BFC5;}
	.st320{fill:#A8B8BF;}
	.st321{fill:#A0B1B9;}
	.st322{fill:url(#SVGID_00000117638333249526185530000000333814021197281965_);}
	.st323{fill:url(#SVGID_00000105425247251128111280000010164532929789572540_);}
	.st324{fill:#212121;}
	.st325{fill:url(#SVGID_00000140724675257868101960000005628222866179456444_);}
	.st326{fill:url(#SVGID_00000166670229901251632900000000155578915367667621_);}
	.st327{fill:url(#SVGID_00000005961858937685493740000000117851140373034136_);}
	.st328{fill:url(#SVGID_00000127008714752640333020000004984123540348833683_);}
	.st329{fill:url(#SVGID_00000120532128778572675980000000795631025797587611_);}
	.st330{fill:url(#SVGID_00000002350349259882979570000003441709222975916182_);}
	.st331{fill:url(#SVGID_00000116913663165783213190000012047613482149743273_);}
	.st332{fill:url(#SVGID_00000029024983400224939620000010897799362788712382_);}
	.st333{fill:url(#SVGID_00000018199160627468331450000005854682105593216153_);}
	.st334{fill:url(#SVGID_00000028303345995780984240000016840603756133292718_);}
	.st335{fill:#B5BECC;}
	.st336{fill:url(#SVGID_00000159444493170056151280000009912800209861717904_);}
	.st337{fill:#FFFFFF;fill-opacity:0.28;}
	.st338{opacity:0.25;}
	.st339{fill:url(#SVGID_00000121988861320766803600000001088863483265097105_);}
	.st340{fill:url(#SVGID_00000042738516196625726440000007045403305352515731_);}
	.st341{fill:url(#SVGID_00000043430485730194036140000009354305539715639940_);}
	.st342{fill:url(#SVGID_00000132079381710253131570000013599918150022267327_);}
	.st343{fill:url(#SVGID_00000093146465977241545940000007193554531260900286_);}
	.st344{fill:url(#SVGID_00000127011957076047305140000010738165149693313956_);}
	.st345{fill:url(#SVGID_00000039131118535090692650000005399895320286054035_);}
	.st346{fill:url(#SVGID_00000046331380107606807190000000134403174633522096_);}
	.st347{fill:url(#SVGID_00000096770605911565021440000001950773471287611581_);}
	.st348{fill:url(#SVGID_00000071543309981820938850000011657291228856365992_);}
	.st349{fill:url(#SVGID_00000115499375442821157410000015117299109032845203_);}
	.st350{fill:url(#SVGID_00000010997927932340796280000006510974282329564824_);}
	.st351{fill:url(#SVGID_00000018952594256419456040000008059086642413200039_);}
	.st352{fill:url(#SVGID_00000100355098146810280040000013602796314978413724_);}
	.st353{fill:url(#SVGID_00000090997521575294012550000010626207859125704619_);}
	.st354{fill:url(#SVGID_00000043423737843422006290000005995112464114159232_);}
	.st355{fill:url(#SVGID_00000129917809792970225770000011378556456285690792_);}
	.st356{fill:url(#SVGID_00000177465887507577650160000013187104023223272083_);}
	.st357{fill:url(#SVGID_00000124867177205718279820000014661844193388769192_);}
	.st358{fill:url(#SVGID_00000102542261154079992940000017190407732501144744_);}
	.st359{fill:url(#SVGID_00000134232514992897498500000005234791114330103699_);}
	.st360{fill:url(#SVGID_00000035509184626596894920000001931452555099035268_);}
	.st361{fill:url(#SVGID_00000078016785078614757750000008669935395349924244_);}
	.st362{fill:url(#SVGID_00000081607349341519172530000002194388614803850159_);}
	.st363{fill:url(#SVGID_00000142896260353241925050000017381382372881360814_);}
	.st364{fill:url(#SVGID_00000052821849443690996180000005770941083607608206_);}
	.st365{fill:url(#SVGID_00000013154072912219389400000006460210456172787365_);}
	.st366{fill:url(#SVGID_00000049217911640349670250000004348670695577530027_);}
	.st367{fill:url(#SVGID_00000054234151237095091830000016577002415304133051_);}
	.st368{fill:url(#SVGID_00000063591352339331285600000008658568057343878034_);}
	.st369{fill:url(#SVGID_00000060021353951719946000000014956656783947597972_);}
	.st370{fill:url(#SVGID_00000088098096478050058320000002726693691122299551_);}
	.st371{fill:url(#SVGID_00000064322784999539838960000012013594056365205943_);}
	.st372{fill:url(#SVGID_00000012432138121372003690000007921990554185901458_);}
	.st373{fill:url(#SVGID_00000023988144801804358850000016472774351353673633_);}
	.st374{fill:url(#SVGID_00000003789036661914950970000007127455550170914483_);}
	.st375{fill:url(#SVGID_00000175309147327142314890000008777577238071706249_);}
	.st376{fill:url(#SVGID_00000028321968009240224340000010888434093389147023_);}
	.st377{fill:url(#SVGID_00000119084737312481089730000004866916063988212639_);}
	.st378{fill:url(#SVGID_00000031201164850995606290000004636990375346562985_);}
	.st379{fill:url(#SVGID_00000114056035231554206090000007160566728733133198_);}
	.st380{fill:url(#SVGID_00000075845029361285744020000015957034297254430343_);}
	.st381{fill:url(#SVGID_00000050629094499205060570000009153539936930909109_);}
	.st382{fill:url(#SVGID_00000113349690380833439380000011058484902350256018_);}
	.st383{fill:url(#SVGID_00000085937359604077352050000016093386581924468118_);}
	.st384{fill:url(#SVGID_00000164508003726604285220000004509973443861199271_);}
	.st385{fill:url(#SVGID_00000054250215266763682680000001210677739093981618_);}
	.st386{fill:url(#SVGID_00000124850725989090458030000017281371783186914460_);}
	.st387{fill:url(#SVGID_00000021799905134715494930000000325447614783290754_);}
	.st388{fill:url(#SVGID_00000110471904820289858190000005754074558186244784_);}
	.st389{fill:url(#SVGID_00000110470594649704215800000007823184582413386169_);}
	.st390{fill:url(#SVGID_00000151505404280828960990000001383208433843002247_);}
	.st391{fill:url(#SVGID_00000063591861966847454160000007604568590806963340_);}
	.st392{fill:url(#SVGID_00000008118841910003221480000016852446671304253631_);}
	.st393{fill:url(#SVGID_00000131345854601293368340000011581871298896740250_);}
	.st394{fill:url(#SVGID_00000024686408229848444350000016517276026736020406_);}
	.st395{fill:url(#SVGID_00000103259739833140436940000017735152131016405408_);}
	.st396{fill:url(#SVGID_00000054242477661773026080000010990988840113277838_);}
	.st397{fill:url(#SVGID_00000101795863304952880010000013274326814907943562_);}
	.st398{fill:#E8B46C;}
	.st399{fill:url(#SVGID_00000155861175442643822620000018116131948337483932_);}
	.st400{fill:#D88A3B;}
	.st401{fill:url(#SVGID_00000176732837087495130180000002744959370873640115_);}
	.st402{fill:url(#SVGID_00000125586418402395920810000002941396794606955697_);}
	.st403{fill:url(#SVGID_00000031908133089968537290000001821537181220066967_);}
	.st404{fill:url(#SVGID_00000004523393221125463510000011601832079892649609_);}
	.st405{fill:#CCB384;}
	.st406{fill:url(#SVGID_00000039853939530661002410000009360933174551554489_);}
</style>
<g>
	<path class="st17" d="M128.07,76.74V65.8c0-2.45,1.51-4.37,3.45-4.37h7.61v-0.88h-7.61c-2.43,0-4.33,2.31-4.33,5.25v10.94
		c0,3.34-1.27,5.11-3.67,5.11h-5.32v0.88h5.32c2.4,0,3.67,1.77,3.67,5.1v10.94c0,2.94,1.9,5.25,4.33,5.25h7.61v-0.88h-7.61
		c-1.93,0-3.45-1.92-3.45-4.36V87.83c0-2.8-0.86-4.3-1.88-5.1h8.18v-0.88h-8.18C127.21,81.04,128.07,79.54,128.07,76.74z"/>
	<g>
		<path class="st0" d="M108.96,77.53c-3.29,0-5.96,2.62-5.96,5.86c0,3.24,2.67,5.86,5.96,5.86c3.29,0,5.96-2.62,5.96-5.86
			C114.92,80.15,112.26,77.53,108.96,77.53z M122.18,82.83c0,7.88-6.5,14.26-14.51,14.26c-8.01,0-13.73-6.39-13.73-14.26
			c0-7.88,6.49-14.26,14.51-14.26C116.46,68.57,122.18,74.96,122.18,82.83z"/>
		<path class="st80" d="M108.95,77.41c-3.35,0-6.04,2.64-6.04,5.94c0,3.29,2.68,5.98,6.03,5.98c3.35,0,6.07-2.67,6.07-5.96
			C115.01,80.07,112.3,77.41,108.95,77.41z M122.03,82.83c0,7.8-6.4,14.07-14.33,14.07c-7.93,0-13.61-6.28-13.61-14.07
			c0-7.8,6.43-14.12,14.36-14.12C116.38,68.71,122.03,75.04,122.03,82.83z"/>
		<path class="st60" d="M108.94,77.3c-3.41,0-6.12,2.66-6.12,6.02c0,3.35,2.69,6.09,6.1,6.09c3.41,0,6.17-2.72,6.17-6.07
			C115.09,79.98,112.35,77.3,108.94,77.3z M121.88,82.83c0,7.72-6.29,13.88-14.14,13.88c-7.85,0-13.5-6.16-13.5-13.88
			c0-7.72,6.36-13.98,14.21-13.98C116.3,68.86,121.88,75.11,121.88,82.83z"/>
		<path class="st258" d="M108.92,77.19c-3.47,0-6.2,2.68-6.2,6.09c0,3.41,2.71,6.21,6.18,6.21c3.47,0,6.28-2.76,6.28-6.18
			C115.18,79.9,112.39,77.19,108.92,77.19z M121.74,82.83c0,7.64-6.19,13.69-13.96,13.69c-7.77,0-13.39-6.05-13.39-13.69
			c0-7.64,6.3-13.83,14.07-13.83C116.22,69,121.74,75.19,121.74,82.83z"/>
		<path class="st22" d="M108.91,77.07c-3.53,0-6.28,2.7-6.28,6.17c0,3.47,2.72,6.32,6.25,6.32s6.39-2.81,6.39-6.28
			C115.26,79.82,112.44,77.07,108.91,77.07z M121.59,82.83c0,7.56-6.09,13.5-13.78,13.5c-7.69,0-13.28-5.94-13.28-13.5
			c0-7.56,6.23-13.69,13.92-13.69C116.14,69.14,121.59,75.27,121.59,82.83z"/>
		<path class="st23" d="M108.9,76.96c-3.59,0-6.36,2.72-6.36,6.25c0,3.53,2.73,6.44,6.32,6.44c3.59,0,6.5-2.86,6.5-6.39
			C115.35,79.74,112.48,76.96,108.9,76.96z M121.44,82.83c0,7.48-5.99,13.31-13.6,13.31c-7.61,0-13.17-5.83-13.17-13.31
			c0-7.48,6.17-13.55,13.78-13.55C116.06,69.29,121.44,75.35,121.44,82.83z"/>
		<path class="st65" d="M108.88,76.85c-3.65,0-6.44,2.75-6.44,6.33c0,3.59,2.75,6.56,6.39,6.56c3.65,0,6.6-2.91,6.6-6.49
			C115.43,79.66,112.53,76.85,108.88,76.85z M121.3,82.83c0,7.4-5.89,13.13-13.42,13.13c-7.53,0-13.05-5.72-13.05-13.13
			c0-7.4,6.1-13.4,13.63-13.4C115.98,69.43,121.3,75.43,121.3,82.83z"/>
		<path class="st259" d="M108.87,76.73c-3.71,0-6.52,2.77-6.52,6.41c0,3.64,2.76,6.67,6.46,6.67c3.71,0,6.71-2.95,6.71-6.6
			C115.52,79.57,112.57,76.73,108.87,76.73z M121.15,82.83c0,7.32-5.79,12.94-13.24,12.94c-7.45,0-12.94-5.61-12.94-12.94
			c0-7.32,6.04-13.26,13.49-13.26C115.9,69.58,121.15,75.51,121.15,82.83z"/>
		<path class="st260" d="M108.86,76.62c-3.76,0-6.61,2.79-6.61,6.49c0,3.7,2.77,6.79,6.54,6.79c3.76,0,6.82-3,6.82-6.7
			C115.6,79.49,112.62,76.62,108.86,76.62z M121,82.83c0,7.24-5.69,12.75-13.06,12.75c-7.37,0-12.83-5.5-12.83-12.75
			c0-7.24,5.97-13.12,13.34-13.12C115.82,69.72,121,75.59,121,82.83z"/>
		<path class="st28" d="M108.84,76.51c-3.82,0-6.69,2.81-6.69,6.57c0,3.76,2.78,6.9,6.61,6.9c3.82,0,6.92-3.05,6.92-6.81
			C115.69,79.41,112.67,76.51,108.84,76.51z M120.86,82.83c0,7.16-5.59,12.56-12.88,12.56c-7.29,0-12.72-5.39-12.72-12.56
			c0-7.17,5.91-12.97,13.19-12.97C115.74,69.86,120.86,75.67,120.86,82.83z"/>
		<path class="st261" d="M108.83,76.39c-3.88,0-6.77,2.83-6.77,6.64c0,3.82,2.8,7.02,6.68,7.02c3.88,0,7.03-3.09,7.03-6.91
			C115.77,79.33,112.71,76.39,108.83,76.39z M120.71,82.83c0,7.09-5.49,12.37-12.7,12.37c-7.21,0-12.61-5.28-12.61-12.37
			c0-7.09,5.84-12.83,13.05-12.83C115.66,70.01,120.71,75.75,120.71,82.83z"/>
		<path class="st86" d="M108.81,76.28c-3.94,0-6.85,2.85-6.85,6.72c0,3.88,2.81,7.14,6.75,7.14c3.94,0,7.14-3.14,7.14-7.02
			C115.86,79.25,112.76,76.28,108.81,76.28z M120.56,82.83c0,7.01-5.39,12.18-12.52,12.18c-7.13,0-12.49-5.17-12.49-12.18
			c0-7.01,5.78-12.69,12.9-12.69C115.58,70.15,120.56,75.83,120.56,82.83z"/>
		<path class="st262" d="M108.8,76.17c-4,0-6.93,2.87-6.93,6.8c0,3.93,2.82,7.25,6.82,7.25c4,0,7.24-3.19,7.24-7.12
			C115.94,79.16,112.8,76.17,108.8,76.17z M120.42,82.83c0,6.93-5.29,11.99-12.34,11.99c-7.05,0-12.38-5.06-12.38-11.99
			c0-6.93,5.71-12.54,12.76-12.54C115.5,70.29,120.42,75.91,120.42,82.83z"/>
		<path class="st263" d="M108.79,76.05c-4.06,0-7.01,2.89-7.01,6.88c0,3.99,2.84,7.37,6.9,7.37c4.06,0,7.35-3.24,7.35-7.23
			C116.03,79.08,112.85,76.05,108.79,76.05z M120.27,82.83c0,6.85-5.19,11.8-12.16,11.8c-6.97,0-12.27-4.95-12.27-11.8
			c0-6.85,5.65-12.4,12.61-12.4C115.42,70.44,120.27,75.99,120.27,82.83z"/>
		<path class="st264" d="M108.77,75.94c-4.12,0-7.09,2.91-7.09,6.96c0,4.05,2.85,7.48,6.97,7.48c4.12,0,7.46-3.28,7.46-7.33
			C116.11,79,112.89,75.94,108.77,75.94z M120.12,82.83c0,6.77-5.09,11.61-11.98,11.61c-6.88,0-12.16-4.84-12.16-11.61
			c0-6.77,5.58-12.26,12.46-12.26C115.34,70.58,120.12,76.07,120.12,82.83z"/>
		<path class="st265" d="M108.76,75.83c-4.18,0-7.17,2.93-7.17,7.04c0,4.11,2.86,7.6,7.04,7.6c4.18,0,7.57-3.33,7.57-7.44
			C116.2,78.92,112.94,75.83,108.76,75.83z M119.98,82.83c0,6.69-4.99,11.42-11.79,11.42c-6.8,0-12.05-4.73-12.05-11.42
			c0-6.69,5.52-12.11,12.32-12.11C115.26,70.72,119.98,76.14,119.98,82.83z"/>
		<path class="st266" d="M108.75,75.71c-4.24,0-7.25,2.95-7.25,7.12c0,4.17,2.87,7.72,7.11,7.72c4.24,0,7.67-3.38,7.67-7.54
			C116.28,78.84,112.98,75.71,108.75,75.71z M119.83,82.83c0,6.61-4.89,11.23-11.61,11.23c-6.72,0-11.94-4.62-11.94-11.23
			c0-6.61,5.45-11.97,12.17-11.97C115.17,70.87,119.83,76.22,119.83,82.83z"/>
		<path class="st267" d="M108.73,75.6c-4.3,0-7.33,2.97-7.33,7.19c0,4.22,2.89,7.83,7.18,7.83c4.3,0,7.78-3.42,7.78-7.65
			C116.37,78.75,113.03,75.6,108.73,75.6z M119.68,82.83c0,6.53-4.79,11.04-11.43,11.04c-6.64,0-11.82-4.51-11.82-11.04
			c0-6.53,5.38-11.82,12.03-11.82C115.09,71.01,119.68,76.3,119.68,82.83z"/>
		<path class="st268" d="M108.72,75.49c-4.36,0-7.41,2.99-7.41,7.27c0,4.28,2.9,7.95,7.26,7.95c4.36,0,7.89-3.47,7.89-7.75
			C116.45,78.67,113.07,75.49,108.72,75.49z M119.53,82.83c0,6.45-4.69,10.85-11.25,10.85c-6.56,0-11.71-4.4-11.71-10.85
			c0-6.45,5.32-11.68,11.88-11.68C115.01,71.15,119.53,76.38,119.53,82.83z"/>
		<path class="st269" d="M108.71,75.37c-4.41,0-7.49,3.01-7.49,7.35c0,4.34,2.91,8.06,7.33,8.06c4.41,0,7.99-3.52,7.99-7.86
			C116.53,78.59,113.12,75.37,108.71,75.37z M119.39,82.83c0,6.37-4.59,10.66-11.07,10.66c-6.48,0-11.6-4.29-11.6-10.66
			c0-6.37,5.25-11.54,11.74-11.54C114.93,71.3,119.39,76.46,119.39,82.83z"/>
		<path class="st270" d="M108.69,75.26c-4.47,0-7.57,3.03-7.57,7.43c0,4.4,2.93,8.18,7.4,8.18c4.47,0,8.1-3.57,8.1-7.96
			C116.62,78.51,113.17,75.26,108.69,75.26z M119.24,82.83c0,6.29-4.49,10.47-10.89,10.47c-6.4,0-11.49-4.18-11.49-10.47
			c0-6.29,5.19-11.39,11.59-11.39C114.85,71.44,119.24,76.54,119.24,82.83z"/>
		<path class="st271" d="M108.68,75.15c-4.53,0-7.65,3.05-7.65,7.51c0,4.46,2.94,8.3,7.47,8.3c4.53,0,8.21-3.61,8.21-8.07
			C116.7,78.42,113.21,75.15,108.68,75.15z M119.09,82.83c0,6.21-4.39,10.28-10.71,10.28c-6.32,0-11.38-4.07-11.38-10.28
			c0-6.22,5.12-11.25,11.44-11.25C114.77,71.58,119.09,76.62,119.09,82.83z"/>
		<path class="st272" d="M108.67,75.03c-4.59,0-7.74,3.07-7.74,7.59c0,4.52,2.95,8.41,7.54,8.41c4.59,0,8.31-3.66,8.31-8.18
			C116.79,78.34,113.26,75.03,108.67,75.03z M118.95,82.83c0,6.13-4.29,10.09-10.53,10.09c-6.24,0-11.26-3.95-11.26-10.09
			c0-6.14,5.06-11.11,11.3-11.11C114.69,71.73,118.95,76.7,118.95,82.83z"/>
		<path class="st273" d="M108.65,74.92c-4.65,0-7.82,3.09-7.82,7.67c0,4.57,2.97,8.53,7.62,8.53c4.65,0,8.42-3.71,8.42-8.28
			C116.87,78.26,113.3,74.92,108.65,74.92z M118.8,82.83c0,6.06-4.19,9.9-10.35,9.9c-6.16,0-11.15-3.84-11.15-9.9
			c0-6.06,4.99-10.96,11.15-10.96C114.61,71.87,118.8,76.78,118.8,82.83z"/>
	</g>
	<g>
		
			<linearGradient id="SVGID_00000000215417253546551600000008850637239615590326_" gradientUnits="userSpaceOnUse" x1="98.7771" y1="73.4225" x2="116.5012" y2="91.1466">
			<stop  offset="7.016190e-03" style="stop-color:#039BE5"/>
			<stop  offset="0.6007" style="stop-color:#0270B6"/>
			<stop  offset="1" style="stop-color:#01579B"/>
		</linearGradient>
		<path style="fill:url(#SVGID_00000000215417253546551600000008850637239615590326_);" d="M105.72,94.67
			c-0.75-0.12-1.49-0.3-2.21-0.55c0.21-0.93-0.2-1.93-1.05-2.42c-0.34-0.19-0.72-0.3-1.11-0.3c-0.6,0-1.16,0.24-1.57,0.65
			c-0.59-0.48-1.14-1-1.63-1.58c0.66-0.7,0.8-1.76,0.3-2.62c-0.39-0.68-1.13-1.11-1.92-1.11c-0.19,0-0.39,0.03-0.58,0.08
			c-0.27-0.71-0.48-1.44-0.63-2.18c0.92-0.28,1.57-1.12,1.57-2.12c0-1.02-0.69-1.89-1.65-2.14c0.12-0.75,0.3-1.49,0.55-2.2
			c0.16,0.04,0.33,0.06,0.5,0.06c0.79,0,1.53-0.43,1.92-1.11c0.51-0.89,0.34-1.98-0.35-2.68c0.47-0.59,1-1.14,1.58-1.63
			c0.41,0.38,0.95,0.59,1.51,0.59c0.39,0,0.77-0.1,1.11-0.3c0.89-0.51,1.29-1.55,1.03-2.5c0.71-0.27,1.44-0.48,2.18-0.62
			c0.28,0.92,1.12,1.57,2.13,1.57c1.02,0,1.89-0.69,2.14-1.65c0.75,0.12,1.49,0.3,2.21,0.55c-0.21,0.93,0.2,1.93,1.05,2.42
			c0.34,0.2,0.72,0.3,1.11,0.3c0.6,0,1.16-0.24,1.57-0.65c0.59,0.48,1.14,1,1.63,1.58c-0.66,0.7-0.8,1.76-0.3,2.62
			c0.39,0.68,1.13,1.11,1.92,1.11c0.19,0,0.39-0.03,0.58-0.08c0.27,0.71,0.48,1.44,0.62,2.18c-0.92,0.28-1.57,1.12-1.57,2.12
			c0,1.02,0.69,1.89,1.65,2.14c-0.12,0.75-0.3,1.49-0.55,2.2c-0.16-0.04-0.33-0.06-0.5-0.06c-0.79,0-1.53,0.42-1.92,1.11
			c-0.51,0.88-0.34,1.98,0.35,2.68c-0.48,0.59-1,1.14-1.58,1.63c-0.41-0.38-0.95-0.59-1.51-0.59c-0.39,0-0.77,0.1-1.11,0.3
			c-0.89,0.51-1.29,1.55-1.03,2.5c-0.71,0.27-1.44,0.48-2.18,0.63c-0.28-0.91-1.14-1.57-2.12-1.57
			C106.84,93.03,105.98,93.72,105.72,94.67z M107.64,75.55c-3.71,0-6.74,3.02-6.74,6.74c0,3.71,3.02,6.74,6.74,6.74
			c3.71,0,6.74-3.02,6.74-6.74C114.38,78.57,111.35,75.55,107.64,75.55z"/>
		
			<linearGradient id="SVGID_00000102516724060714414920000001200436004902570639_" gradientUnits="userSpaceOnUse" x1="98.4739" y1="73.1188" x2="116.8049" y2="91.4498">
			<stop  offset="7.016190e-03" style="stop-color:#2BAAFF"/>
			<stop  offset="0.304" style="stop-color:#1D88D1"/>
			<stop  offset="0.7781" style="stop-color:#09558C"/>
			<stop  offset="1" style="stop-color:#014171"/>
		</linearGradient>
		<path style="fill:url(#SVGID_00000102516724060714414920000001200436004902570639_);" d="M118.81,82.06
			c0-0.94,0.72-1.71,1.64-1.79c-0.17-1.07-0.47-2.1-0.88-3.07c-0.84,0.43-1.89,0.13-2.37-0.7c-0.47-0.81-0.23-1.84,0.52-2.36
			c-0.67-0.83-1.44-1.58-2.3-2.22c-0.52,0.79-1.57,1.06-2.4,0.58c-0.81-0.47-1.12-1.48-0.73-2.31c-0.98-0.38-2.02-0.64-3.1-0.77
			c-0.05,0.95-0.83,1.7-1.79,1.7c-0.94,0-1.71-0.72-1.79-1.64c-1.07,0.17-2.1,0.47-3.07,0.88c0.43,0.84,0.13,1.89-0.7,2.37
			c-0.81,0.47-1.83,0.23-2.36-0.52c-0.83,0.67-1.58,1.44-2.22,2.3c0.79,0.52,1.05,1.57,0.58,2.4c-0.47,0.81-1.48,1.12-2.31,0.73
			c-0.38,0.98-0.64,2.02-0.77,3.1c0.95,0.05,1.7,0.83,1.7,1.79c0,0.94-0.72,1.71-1.64,1.78c0.17,1.07,0.47,2.1,0.88,3.07
			c0.84-0.43,1.89-0.13,2.37,0.7c0.47,0.81,0.23,1.84-0.52,2.36c0.67,0.83,1.44,1.57,2.3,2.22c0.52-0.79,1.57-1.06,2.4-0.58
			c0.81,0.47,1.12,1.48,0.73,2.31c0.98,0.38,2.02,0.64,3.1,0.77c0.05-0.95,0.83-1.7,1.79-1.7c0.94,0,1.71,0.72,1.79,1.64
			c1.07-0.17,2.1-0.47,3.07-0.88c-0.43-0.84-0.13-1.89,0.7-2.37c0.81-0.47,1.84-0.23,2.36,0.52c0.83-0.67,1.58-1.44,2.22-2.3
			c-0.79-0.52-1.06-1.57-0.58-2.4c0.47-0.81,1.48-1.12,2.31-0.73c0.38-0.98,0.64-2.02,0.77-3.1
			C119.56,83.8,118.81,83.02,118.81,82.06z M119.48,86.41c-0.16-0.04-0.33-0.06-0.5-0.06c-0.79,0-1.53,0.42-1.92,1.11
			c-0.51,0.88-0.34,1.98,0.35,2.68c-0.48,0.59-1,1.14-1.58,1.63c-0.41-0.38-0.95-0.59-1.51-0.59c-0.39,0-0.77,0.1-1.11,0.3
			c-0.89,0.51-1.29,1.55-1.03,2.5c-0.71,0.27-1.44,0.48-2.18,0.63c-0.28-0.91-1.14-1.57-2.12-1.57c-1.02,0-1.89,0.69-2.14,1.65
			c-0.75-0.12-1.49-0.3-2.21-0.55c0.21-0.93-0.2-1.93-1.05-2.42c-0.34-0.19-0.72-0.3-1.11-0.3c-0.6,0-1.16,0.24-1.57,0.65
			c-0.59-0.48-1.14-1-1.63-1.58c0.66-0.7,0.8-1.76,0.3-2.62c-0.39-0.68-1.13-1.11-1.92-1.11c-0.19,0-0.39,0.03-0.58,0.08
			c-0.27-0.71-0.48-1.44-0.63-2.18c0.92-0.28,1.57-1.12,1.57-2.12c0-1.02-0.69-1.89-1.65-2.14c0.12-0.75,0.3-1.49,0.55-2.2
			c0.16,0.04,0.33,0.06,0.5,0.06c0.79,0,1.53-0.43,1.92-1.11c0.51-0.89,0.34-1.98-0.35-2.68c0.47-0.59,1-1.14,1.58-1.63
			c0.41,0.38,0.95,0.59,1.51,0.59c0.39,0,0.77-0.1,1.11-0.3c0.89-0.51,1.29-1.55,1.03-2.5c0.71-0.27,1.44-0.48,2.18-0.62
			c0.28,0.92,1.12,1.57,2.13,1.57c1.02,0,1.89-0.69,2.14-1.65c0.75,0.12,1.49,0.3,2.21,0.55c-0.21,0.93,0.2,1.93,1.05,2.42
			c0.34,0.2,0.72,0.3,1.11,0.3c0.6,0,1.16-0.24,1.57-0.65c0.59,0.48,1.14,1,1.63,1.58c-0.66,0.7-0.8,1.76-0.3,2.62
			c0.39,0.68,1.13,1.11,1.92,1.11c0.19,0,0.39-0.03,0.58-0.08c0.27,0.71,0.48,1.44,0.62,2.18c-0.92,0.28-1.57,1.12-1.57,2.12
			c0,1.02,0.69,1.89,1.65,2.14C119.91,84.95,119.73,85.69,119.48,86.41z"/>
		
			<linearGradient id="SVGID_00000034780008941217708040000006203728983287894155_" gradientUnits="userSpaceOnUse" x1="102.8776" y1="77.523" x2="112.3999" y2="87.0453">
			<stop  offset="0" style="stop-color:#01579B"/>
			<stop  offset="0.3993" style="stop-color:#0270B6"/>
			<stop  offset="0.993" style="stop-color:#039BE5"/>
		</linearGradient>
		<path style="fill:url(#SVGID_00000034780008941217708040000006203728983287894155_);" d="M107.64,75.55
			c-3.71,0-6.74,3.02-6.74,6.74c0,3.71,3.02,6.74,6.74,6.74c3.71,0,6.74-3.02,6.74-6.74C114.38,78.57,111.35,75.55,107.64,75.55z
			 M107.64,88.59c-3.48,0-6.31-2.82-6.31-6.31c0-3.48,2.82-6.31,6.31-6.31c3.48,0,6.31,2.82,6.31,6.31
			C113.95,85.77,111.12,88.59,107.64,88.59z"/>
	</g>
	<g>
		<g>
			<path class="st0" d="M150.15,61c0,4.83-3.99,8.75-8.9,8.75c-4.92,0-8.9-3.92-8.9-8.75s3.99-8.75,8.9-8.75
				C146.17,52.24,150.15,56.16,150.15,61z"/>
			<path class="st80" d="M150.01,61c0,4.76-3.92,8.61-8.76,8.61c-4.84,0-8.76-3.86-8.76-8.61c0-4.76,3.92-8.61,8.76-8.61
				C146.09,52.38,150.01,56.24,150.01,61z"/>
			<path class="st60" d="M149.87,61c0,4.68-3.86,8.47-8.62,8.47c-4.76,0-8.62-3.79-8.62-8.47c0-4.68,3.86-8.47,8.62-8.47
				C146.01,52.52,149.87,56.32,149.87,61z"/>
			<path class="st258" d="M149.73,61c0,4.6-3.8,8.34-8.48,8.34c-4.68,0-8.48-3.73-8.48-8.34c0-4.6,3.8-8.33,8.48-8.33
				C145.93,52.66,149.73,56.39,149.73,61z"/>
			<path class="st22" d="M149.58,61c0,4.53-3.73,8.2-8.33,8.2c-4.6,0-8.34-3.67-8.34-8.2c0-4.53,3.73-8.19,8.34-8.19
				C145.85,52.8,149.58,56.47,149.58,61z"/>
			<path class="st23" d="M149.44,61c0,4.45-3.67,8.06-8.19,8.06c-4.53,0-8.19-3.61-8.19-8.06c0-4.45,3.67-8.05,8.19-8.05
				C145.77,52.94,149.44,56.55,149.44,61z"/>
			<path class="st65" d="M149.3,61c0,4.37-3.6,7.92-8.05,7.92c-4.45,0-8.05-3.54-8.05-7.92c0-4.37,3.6-7.92,8.05-7.92
				C145.7,53.08,149.3,56.62,149.3,61z"/>
			<path class="st259" d="M149.16,61c0,4.3-3.54,7.78-7.91,7.78c-4.37,0-7.91-3.48-7.91-7.78c0-4.29,3.54-7.78,7.91-7.78
				C145.62,53.22,149.16,56.7,149.16,61z"/>
			<path class="st260" d="M149.02,61c0,4.22-3.48,7.64-7.77,7.64c-4.29,0-7.77-3.42-7.77-7.64c0-4.22,3.48-7.64,7.77-7.64
				C145.54,53.36,149.02,56.78,149.02,61z"/>
			<path class="st28" d="M148.87,61c0,4.14-3.41,7.5-7.63,7.5c-4.21,0-7.63-3.36-7.63-7.5c0-4.14,3.41-7.5,7.63-7.5
				C145.46,53.5,148.87,56.85,148.87,61z"/>
			<path class="st261" d="M148.73,61c0,4.06-3.35,7.36-7.48,7.36c-4.13,0-7.48-3.29-7.48-7.36c0-4.06,3.35-7.36,7.48-7.36
				C145.38,53.64,148.73,56.93,148.73,61z"/>
			<path class="st86" d="M148.59,61c0,3.99-3.29,7.22-7.34,7.22c-4.06,0-7.34-3.23-7.34-7.22c0-3.99,3.29-7.22,7.34-7.22
				C145.3,53.78,148.59,57.01,148.59,61z"/>
			<path class="st262" d="M148.45,61c0,3.91-3.22,7.08-7.2,7.08c-3.98,0-7.2-3.17-7.2-7.08c0-3.91,3.22-7.08,7.2-7.08
				C145.23,53.92,148.45,57.09,148.45,61z"/>
			<path class="st263" d="M148.31,61c0,3.83-3.16,6.94-7.06,6.94c-3.9,0-7.06-3.11-7.06-6.94c0-3.83,3.16-6.94,7.06-6.94
				C145.15,54.06,148.31,57.16,148.31,61z"/>
			<path class="st264" d="M148.17,61c0,3.76-3.1,6.8-6.92,6.8c-3.82,0-6.92-3.04-6.92-6.8c0-3.76,3.1-6.8,6.92-6.8
				C145.07,54.2,148.17,57.24,148.17,61z"/>
			<path class="st265" d="M148.02,61c0,3.68-3.03,6.66-6.77,6.66c-3.74,0-6.77-2.98-6.77-6.66c0-3.68,3.03-6.66,6.77-6.66
				C144.99,54.34,148.02,57.32,148.02,61z"/>
			<path class="st266" d="M147.88,61c0,3.6-2.97,6.52-6.63,6.52c-3.66,0-6.63-2.92-6.63-6.52c0-3.6,2.97-6.52,6.63-6.52
				C144.91,54.47,147.88,57.39,147.88,61z"/>
			<path class="st267" d="M147.74,61c0,3.53-2.91,6.38-6.49,6.38c-3.59,0-6.49-2.86-6.49-6.38c0-3.52,2.91-6.38,6.49-6.38
				C144.83,54.61,147.74,57.47,147.74,61z"/>
			<path class="st268" d="M147.6,61c0,3.45-2.84,6.24-6.35,6.24c-3.51,0-6.35-2.79-6.35-6.24c0-3.45,2.84-6.24,6.35-6.24
				C144.76,54.75,147.6,57.55,147.6,61z"/>
			<path class="st269" d="M147.46,61c0,3.37-2.78,6.1-6.21,6.1c-3.43,0-6.21-2.73-6.21-6.1c0-3.37,2.78-6.1,6.21-6.1
				C144.68,54.89,147.46,57.63,147.46,61z"/>
			<path class="st270" d="M147.31,61c0,3.29-2.72,5.96-6.06,5.96c-3.35,0-6.07-2.67-6.07-5.96c0-3.29,2.71-5.96,6.07-5.96
				C144.6,55.03,147.31,57.7,147.31,61z"/>
			<path class="st271" d="M147.17,61c0,3.22-2.65,5.82-5.92,5.82c-3.27,0-5.92-2.61-5.92-5.82c0-3.22,2.65-5.82,5.92-5.82
				C144.52,55.17,147.17,57.78,147.17,61z"/>
			<path class="st272" d="M147.03,61c0,3.14-2.59,5.68-5.78,5.68c-3.19,0-5.78-2.55-5.78-5.68c0-3.14,2.59-5.68,5.78-5.68
				C144.44,55.31,147.03,57.86,147.03,61z"/>
			<path class="st273" d="M146.89,61c0,3.06-2.53,5.55-5.64,5.55c-3.12,0-5.64-2.48-5.64-5.55c0-3.06,2.52-5.54,5.64-5.54
				C144.36,55.45,146.89,57.93,146.89,61z"/>
		</g>
		<g>
			
				<linearGradient id="SVGID_00000041258733618527956400000017632100901652168118_" gradientUnits="userSpaceOnUse" x1="139.3048" y1="58.5224" x2="142.6337" y2="62.7641">
				<stop  offset="0" style="stop-color:#72CFC4"/>
				<stop  offset="1" style="stop-color:#007172"/>
			</linearGradient>
			<path style="fill:url(#SVGID_00000041258733618527956400000017632100901652168118_);" d="M148.41,60.63
				c0.1,4.04-3.1,7.39-7.14,7.49c-4.04,0.09-7.39-3.1-7.49-7.14c-0.1-4.04,3.1-7.39,7.14-7.49
				C144.96,53.39,148.31,56.59,148.41,60.63z"/>
			
				<linearGradient id="SVGID_00000118391050771483922410000007574591785910063776_" gradientUnits="userSpaceOnUse" x1="35.1947" y1="-225.7612" x2="44.7053" y2="-216.2506" gradientTransform="matrix(0.9997 -0.0236 0.0236 0.9997 106.3703 282.6824)">
				<stop  offset="0" style="stop-color:#72CFC4"/>
				<stop  offset="1" style="stop-color:#007172"/>
			</linearGradient>
			<path style="fill:url(#SVGID_00000118391050771483922410000007574591785910063776_);" d="M147.81,60.64
				c0.09,3.71-2.85,6.79-6.56,6.88c-3.71,0.09-6.79-2.85-6.88-6.56c-0.09-3.71,2.85-6.79,6.56-6.88
				C144.65,53.99,147.73,56.93,147.81,60.64z"/>
			<polygon class="st0" points="143.94,58.41 140.65,61.71 138.24,59.3 136.98,60.56 140.65,64.23 145.2,59.67 			"/>
		</g>
	</g>
	<g>
		<g>
			<path class="st0" d="M150.15,82.28c0,4.83-3.99,8.75-8.9,8.75c-4.92,0-8.9-3.92-8.9-8.75c0-4.84,3.99-8.75,8.9-8.75
				C146.17,73.53,150.15,77.45,150.15,82.28z"/>
			<path class="st80" d="M150.01,82.28c0,4.76-3.92,8.61-8.76,8.61c-4.84,0-8.76-3.86-8.76-8.61c0-4.76,3.92-8.61,8.76-8.61
				C146.09,73.67,150.01,77.53,150.01,82.28z"/>
			<path class="st60" d="M149.87,82.28c0,4.68-3.86,8.48-8.62,8.48c-4.76,0-8.62-3.79-8.62-8.48c0-4.68,3.86-8.47,8.62-8.47
				C146.01,73.81,149.87,77.6,149.87,82.28z"/>
			<path class="st258" d="M149.73,82.28c0,4.6-3.8,8.34-8.48,8.34c-4.68,0-8.48-3.73-8.48-8.34c0-4.6,3.8-8.33,8.48-8.33
				C145.93,73.95,149.73,77.68,149.73,82.28z"/>
			<path class="st22" d="M149.58,82.28c0,4.53-3.73,8.2-8.33,8.2c-4.6,0-8.34-3.67-8.34-8.2c0-4.53,3.73-8.19,8.34-8.19
				C145.85,74.09,149.58,77.76,149.58,82.28z"/>
			<path class="st23" d="M149.44,82.28c0,4.45-3.67,8.06-8.19,8.06c-4.53,0-8.19-3.61-8.19-8.06c0-4.45,3.67-8.05,8.19-8.05
				C145.77,74.23,149.44,77.83,149.44,82.28z"/>
			<path class="st65" d="M149.3,82.28c0,4.37-3.6,7.92-8.05,7.92c-4.45,0-8.05-3.54-8.05-7.92c0-4.37,3.6-7.92,8.05-7.92
				C145.7,74.37,149.3,77.91,149.3,82.28z"/>
			<path class="st259" d="M149.16,82.28c0,4.3-3.54,7.78-7.91,7.78c-4.37,0-7.91-3.48-7.91-7.78c0-4.3,3.54-7.78,7.91-7.78
				C145.62,74.51,149.16,77.99,149.16,82.28z"/>
			<path class="st260" d="M149.02,82.28c0,4.22-3.48,7.64-7.77,7.64c-4.29,0-7.77-3.42-7.77-7.64c0-4.22,3.48-7.64,7.77-7.64
				C145.54,74.65,149.02,78.06,149.02,82.28z"/>
			<path class="st28" d="M148.87,82.28c0,4.14-3.41,7.5-7.63,7.5c-4.21,0-7.63-3.36-7.63-7.5c0-4.14,3.41-7.5,7.63-7.5
				C145.46,74.79,148.87,78.14,148.87,82.28z"/>
			<path class="st261" d="M148.73,82.28c0,4.06-3.35,7.36-7.48,7.36c-4.13,0-7.48-3.29-7.48-7.36c0-4.06,3.35-7.36,7.48-7.36
				C145.38,74.93,148.73,78.22,148.73,82.28z"/>
			<path class="st86" d="M148.59,82.28c0,3.99-3.29,7.22-7.34,7.22c-4.06,0-7.34-3.23-7.34-7.22c0-3.99,3.29-7.22,7.34-7.22
				C145.3,75.07,148.59,78.3,148.59,82.28z"/>
			<path class="st262" d="M148.45,82.28c0,3.91-3.22,7.08-7.2,7.08c-3.98,0-7.2-3.17-7.2-7.08c0-3.91,3.22-7.08,7.2-7.08
				C145.23,75.2,148.45,78.37,148.45,82.28z"/>
			<path class="st263" d="M148.31,82.28c0,3.83-3.16,6.94-7.06,6.94c-3.9,0-7.06-3.11-7.06-6.94c0-3.83,3.16-6.94,7.06-6.94
				C145.15,75.34,148.31,78.45,148.31,82.28z"/>
			<path class="st264" d="M148.17,82.28c0,3.76-3.1,6.8-6.92,6.8c-3.82,0-6.92-3.04-6.92-6.8c0-3.76,3.1-6.8,6.92-6.8
				C145.07,75.48,148.17,78.53,148.17,82.28z"/>
			<path class="st265" d="M148.02,82.28c0,3.68-3.03,6.66-6.77,6.66c-3.74,0-6.77-2.98-6.77-6.66c0-3.68,3.03-6.66,6.77-6.66
				C144.99,75.62,148.02,78.6,148.02,82.28z"/>
			<path class="st266" d="M147.88,82.28c0,3.6-2.97,6.52-6.63,6.52c-3.66,0-6.63-2.92-6.63-6.52c0-3.6,2.97-6.52,6.63-6.52
				C144.91,75.76,147.88,78.68,147.88,82.28z"/>
			<path class="st267" d="M147.74,82.28c0,3.53-2.91,6.38-6.49,6.38c-3.59,0-6.49-2.86-6.49-6.38c0-3.53,2.91-6.38,6.49-6.38
				C144.83,75.9,147.74,78.76,147.74,82.28z"/>
			<path class="st268" d="M147.6,82.28c0,3.45-2.84,6.24-6.35,6.24c-3.51,0-6.35-2.8-6.35-6.24c0-3.45,2.84-6.24,6.35-6.24
				C144.76,76.04,147.6,78.84,147.6,82.28z"/>
			<path class="st269" d="M147.46,82.28c0,3.37-2.78,6.1-6.21,6.1c-3.43,0-6.21-2.73-6.21-6.1c0-3.37,2.78-6.1,6.21-6.1
				C144.68,76.18,147.46,78.91,147.46,82.28z"/>
			<path class="st270" d="M147.31,82.28c0,3.29-2.72,5.96-6.06,5.96c-3.35,0-6.07-2.67-6.07-5.96c0-3.29,2.71-5.96,6.07-5.96
				C144.6,76.32,147.31,78.99,147.31,82.28z"/>
			<path class="st271" d="M147.17,82.28c0,3.22-2.65,5.82-5.92,5.82c-3.27,0-5.92-2.61-5.92-5.82c0-3.22,2.65-5.82,5.92-5.82
				C144.52,76.46,147.17,79.07,147.17,82.28z"/>
			<path class="st272" d="M147.03,82.28c0,3.14-2.59,5.68-5.78,5.68c-3.19,0-5.78-2.55-5.78-5.68c0-3.14,2.59-5.68,5.78-5.68
				C144.44,76.6,147.03,79.14,147.03,82.28z"/>
			<path class="st273" d="M146.89,82.28c0,3.06-2.53,5.55-5.64,5.55c-3.12,0-5.64-2.48-5.64-5.55c0-3.06,2.52-5.54,5.64-5.54
				C144.36,76.74,146.89,79.22,146.89,82.28z"/>
		</g>
		<g>
			
				<linearGradient id="SVGID_00000127037437281010028360000016249602535928895141_" gradientUnits="userSpaceOnUse" x1="138.2871" y1="77.4566" x2="141.6697" y2="83.0406">
				<stop  offset="0" style="stop-color:#72CFC4"/>
				<stop  offset="1" style="stop-color:#007172"/>
			</linearGradient>
			<path style="fill:url(#SVGID_00000127037437281010028360000016249602535928895141_);" d="M148.41,81.92
				c0.1,4.04-3.1,7.39-7.14,7.49c-4.04,0.1-7.39-3.1-7.49-7.14c-0.1-4.04,3.1-7.39,7.14-7.49
				C144.96,74.68,148.31,77.88,148.41,81.92z"/>
			
				<linearGradient id="SVGID_00000058588511077314794860000007950643733580578965_" gradientUnits="userSpaceOnUse" x1="34.6922" y1="-204.4792" x2="44.2029" y2="-194.9685" gradientTransform="matrix(0.9997 -0.0236 0.0236 0.9997 106.3703 282.6824)">
				<stop  offset="0" style="stop-color:#72CFC4"/>
				<stop  offset="1" style="stop-color:#007172"/>
			</linearGradient>
			<path style="fill:url(#SVGID_00000058588511077314794860000007950643733580578965_);" d="M147.81,81.93
				c0.09,3.71-2.85,6.79-6.56,6.88c-3.71,0.09-6.79-2.85-6.88-6.56c-0.09-3.71,2.85-6.8,6.56-6.88
				C144.65,75.28,147.73,78.22,147.81,81.93z"/>
			<polygon class="st0" points="143.94,79.7 140.65,82.99 138.24,80.59 136.98,81.85 140.65,85.51 145.2,80.96 			"/>
		</g>
	</g>
	<g>
		<g>
			<path class="st0" d="M150.15,103.57c0,4.83-3.99,8.75-8.9,8.75c-4.92,0-8.9-3.92-8.9-8.75c0-4.84,3.99-8.75,8.9-8.75
				C146.17,94.82,150.15,98.74,150.15,103.57z"/>
			<path class="st80" d="M150.01,103.57c0,4.76-3.92,8.61-8.76,8.61c-4.84,0-8.76-3.86-8.76-8.61c0-4.76,3.92-8.61,8.76-8.61
				C146.09,94.96,150.01,98.81,150.01,103.57z"/>
			<path class="st60" d="M149.87,103.57c0,4.68-3.86,8.47-8.62,8.47c-4.76,0-8.62-3.79-8.62-8.47c0-4.68,3.86-8.47,8.62-8.47
				C146.01,95.1,149.87,98.89,149.87,103.57z"/>
			<path class="st258" d="M149.73,103.57c0,4.6-3.8,8.33-8.48,8.33c-4.68,0-8.48-3.73-8.48-8.33c0-4.6,3.8-8.33,8.48-8.33
				C145.93,95.24,149.73,98.97,149.73,103.57z"/>
			<path class="st22" d="M149.58,103.57c0,4.53-3.73,8.2-8.33,8.2c-4.6,0-8.34-3.67-8.34-8.2c0-4.53,3.73-8.2,8.34-8.2
				C145.85,95.38,149.58,99.04,149.58,103.57z"/>
			<path class="st23" d="M149.44,103.57c0,4.45-3.67,8.06-8.19,8.06c-4.53,0-8.19-3.61-8.19-8.06c0-4.45,3.67-8.06,8.19-8.06
				C145.77,95.52,149.44,99.12,149.44,103.57z"/>
			<path class="st65" d="M149.3,103.57c0,4.37-3.6,7.92-8.05,7.92c-4.45,0-8.05-3.54-8.05-7.92c0-4.37,3.6-7.92,8.05-7.92
				C145.7,95.66,149.3,99.2,149.3,103.57z"/>
			<path class="st259" d="M149.16,103.57c0,4.29-3.54,7.78-7.91,7.78c-4.37,0-7.91-3.48-7.91-7.78c0-4.3,3.54-7.78,7.91-7.78
				C145.62,95.8,149.16,99.28,149.16,103.57z"/>
			<path class="st260" d="M149.02,103.57c0,4.22-3.48,7.64-7.77,7.64c-4.29,0-7.77-3.42-7.77-7.64c0-4.22,3.48-7.64,7.77-7.64
				C145.54,95.93,149.02,99.35,149.02,103.57z"/>
			<path class="st28" d="M148.87,103.57c0,4.14-3.41,7.5-7.63,7.5c-4.21,0-7.63-3.36-7.63-7.5c0-4.14,3.41-7.5,7.63-7.5
				C145.46,96.07,148.87,99.43,148.87,103.57z"/>
			<path class="st261" d="M148.73,103.57c0,4.06-3.35,7.36-7.48,7.36c-4.13,0-7.48-3.29-7.48-7.36c0-4.06,3.35-7.36,7.48-7.36
				C145.38,96.21,148.73,99.51,148.73,103.57z"/>
			<path class="st86" d="M148.59,103.57c0,3.99-3.29,7.22-7.34,7.22c-4.06,0-7.34-3.23-7.34-7.22c0-3.99,3.29-7.22,7.34-7.22
				C145.3,96.35,148.59,99.58,148.59,103.57z"/>
			<path class="st262" d="M148.45,103.57c0,3.91-3.22,7.08-7.2,7.08c-3.98,0-7.2-3.17-7.2-7.08c0-3.91,3.22-7.08,7.2-7.08
				C145.23,96.49,148.45,99.66,148.45,103.57z"/>
			<path class="st263" d="M148.31,103.57c0,3.83-3.16,6.94-7.06,6.94c-3.9,0-7.06-3.11-7.06-6.94c0-3.83,3.16-6.94,7.06-6.94
				C145.15,96.63,148.31,99.74,148.31,103.57z"/>
			<path class="st264" d="M148.17,103.57c0,3.76-3.1,6.8-6.92,6.8c-3.82,0-6.92-3.04-6.92-6.8c0-3.76,3.1-6.8,6.92-6.8
				C145.07,96.77,148.17,99.82,148.17,103.57z"/>
			<path class="st265" d="M148.02,103.57c0,3.68-3.03,6.66-6.77,6.66c-3.74,0-6.77-2.98-6.77-6.66c0-3.68,3.03-6.66,6.77-6.66
				C144.99,96.91,148.02,99.89,148.02,103.57z"/>
			<path class="st266" d="M147.88,103.57c0,3.6-2.97,6.52-6.63,6.52c-3.66,0-6.63-2.92-6.63-6.52c0-3.6,2.97-6.52,6.63-6.52
				C144.91,97.05,147.88,99.97,147.88,103.57z"/>
			<path class="st267" d="M147.74,103.57c0,3.52-2.91,6.38-6.49,6.38c-3.59,0-6.49-2.86-6.49-6.38c0-3.53,2.91-6.38,6.49-6.38
				C144.83,97.19,147.74,100.05,147.74,103.57z"/>
			<path class="st268" d="M147.6,103.57c0,3.45-2.84,6.24-6.35,6.24c-3.51,0-6.35-2.79-6.35-6.24c0-3.45,2.84-6.24,6.35-6.24
				C144.76,97.33,147.6,100.12,147.6,103.57z"/>
			<path class="st269" d="M147.46,103.57c0,3.37-2.78,6.1-6.21,6.1c-3.43,0-6.21-2.73-6.21-6.1c0-3.37,2.78-6.1,6.21-6.1
				C144.68,97.47,147.46,100.2,147.46,103.57z"/>
			<path class="st270" d="M147.31,103.57c0,3.29-2.72,5.96-6.06,5.96c-3.35,0-6.07-2.67-6.07-5.96c0-3.29,2.71-5.96,6.07-5.96
				C144.6,97.61,147.31,100.28,147.31,103.57z"/>
			<path class="st271" d="M147.17,103.57c0,3.22-2.65,5.82-5.92,5.82c-3.27,0-5.92-2.61-5.92-5.82c0-3.22,2.65-5.82,5.92-5.82
				C144.52,97.75,147.17,100.35,147.17,103.57z"/>
			<path class="st272" d="M147.03,103.57c0,3.14-2.59,5.68-5.78,5.68c-3.19,0-5.78-2.55-5.78-5.68c0-3.14,2.59-5.68,5.78-5.68
				C144.44,97.89,147.03,100.43,147.03,103.57z"/>
			<path class="st273" d="M146.89,103.57c0,3.06-2.53,5.54-5.64,5.54c-3.12,0-5.64-2.48-5.64-5.54c0-3.06,2.52-5.54,5.64-5.54
				C144.36,98.03,146.89,100.51,146.89,103.57z"/>
		</g>
		<g>
			
				<linearGradient id="SVGID_00000041253919001871104610000003284065460215212217_" gradientUnits="userSpaceOnUse" x1="138.3595" y1="100.2093" x2="142.7623" y2="105.3101">
				<stop  offset="0" style="stop-color:#72CFC4"/>
				<stop  offset="1" style="stop-color:#007172"/>
			</linearGradient>
			<path style="fill:url(#SVGID_00000041253919001871104610000003284065460215212217_);" d="M148.41,103.2
				c0.1,4.04-3.1,7.39-7.14,7.49c-4.04,0.09-7.39-3.1-7.49-7.14c-0.1-4.04,3.1-7.39,7.14-7.49
				C144.96,95.97,148.31,99.16,148.41,103.2z"/>
			
				<linearGradient id="SVGID_00000069372337110608019170000012085969613316576948_" gradientUnits="userSpaceOnUse" x1="34.1898" y1="-183.197" x2="43.7005" y2="-173.6862" gradientTransform="matrix(0.9997 -0.0236 0.0236 0.9997 106.3703 282.6824)">
				<stop  offset="0" style="stop-color:#72CFC4"/>
				<stop  offset="1" style="stop-color:#007172"/>
			</linearGradient>
			<path style="fill:url(#SVGID_00000069372337110608019170000012085969613316576948_);" d="M147.81,103.22
				c0.09,3.71-2.85,6.79-6.56,6.88c-3.71,0.09-6.79-2.85-6.88-6.56c-0.09-3.71,2.85-6.8,6.56-6.88
				C144.65,96.56,147.73,99.5,147.81,103.22z"/>
			<polygon class="st0" points="143.94,100.99 140.65,104.28 138.24,101.88 136.98,103.14 140.65,106.8 145.2,102.25 			"/>
		</g>
	</g>
	<g>
		<g>
			<path class="st0" d="M99,96.53c-7.26-2.65-5.28-6.88-4.12-9.19c6.24-12.33,6.34-40.72-0.51-51.59
				c-3.45-5.48-9.63-8.35-17.37-9.56c-4.03-0.63-4.95,2.88-10.08,3.63c-9.95,1.46-21.62,0.98-24.32,7.54
				c-4.75,11.51,0.03,44.83,11.69,54.3c1.75,1.42-0.71,2.86-4.83,4.03c-1.96,0.77-33.16,4.63-33.16,24.29v18.29c0,0,38.03,0,52.21,0
				c14.68,0,54.85,0,54.85,0l-1.17-20.19C119.23,103.85,103.49,98.16,99,96.53z"/>
			<path class="st18" d="M98.35,96.78c-7.11-2.58-5.28-7.18-4.1-9.46c6.39-12.31,6.56-40.58-0.14-51.4
				c-3.37-5.44-9.43-8.31-17.07-9.5c-4.06-0.64-4.98,2.92-10.1,3.7c-9.83,1.48-21.24,1.11-23.93,7.63
				c-4.73,11.49,0.04,44.15,11.64,53.69c1.83,1.5-0.82,3.38-4.92,4.55c-1.95,0.76-32.68,4.48-32.68,23.98v18.31c0,0,37.37,0,51.48,0
				c14.6,0,54.26,0,54.26,0l-1.14-20.06C118.8,103.96,102.72,98.37,98.35,96.78z"/>
			<path class="st19" d="M97.69,97.03c-6.96-2.52-5.29-7.48-4.09-9.74c6.55-12.29,6.79-40.44,0.22-51.21
				c-3.3-5.39-9.23-8.27-16.77-9.45c-4.09-0.64-5.01,2.96-10.12,3.77c-9.71,1.51-20.87,1.24-23.53,7.72
				c-4.7,11.48,0.05,43.48,11.58,53.08c1.91,1.59-0.94,3.9-5.01,5.07c-1.94,0.76-32.21,4.32-32.21,23.68v18.34c0,0,36.72,0,50.75,0
				c14.53,0,53.67,0,53.67,0l-1.11-19.93C118.37,104.06,101.94,98.58,97.69,97.03z"/>
			<path class="st20" d="M97.04,97.28c-6.81-2.45-5.3-7.78-4.08-10.02c6.67-12.28,7.02-40.29,0.59-51.03
				c-3.22-5.35-9.03-8.23-16.46-9.39c-4.12-0.65-5.03,3-10.14,3.84c-9.58,1.53-20.5,1.37-23.13,7.81
				c-4.68,11.46,0.05,42.81,11.53,52.47c1.99,1.67-1.05,4.43-5.1,5.59c-1.93,0.76-31.74,4.16-31.74,23.37v18.36c0,0,36.06,0,50.03,0
				c14.45,0,53.08,0,53.08,0l-1.08-19.81C117.94,104.16,101.17,98.79,97.04,97.28z"/>
			<path class="st21" d="M96.38,97.53c-6.66-2.38-5.3-8.08-4.07-10.3c6.82-12.26,7.24-40.15,0.95-50.84
				c-3.14-5.31-8.83-8.19-16.16-9.34c-4.15-0.65-5.06,3.05-10.15,3.91c-9.46,1.58-20.13,1.5-22.73,7.9
				c-4.65,11.45,0.04,42.15,11.47,51.86c2.07,1.76-1.16,4.95-5.19,6.12c-1.92,0.76-31.27,4.01-31.27,23.07v18.38c0,0,35.41,0,49.3,0
				c14.38,0,52.48,0,52.48,0l-1.05-19.68C117.5,104.26,100.4,99.01,96.38,97.53z"/>
			<path class="st22" d="M95.73,97.78c-6.5-2.32-5.3-8.38-4.06-10.57c6.97-12.24,7.47-40.01,1.31-50.65
				c-3.07-5.26-8.63-8.14-15.86-9.28c-4.18-0.66-5.09,3.1-10.17,3.97c-9.33,1.61-19.76,1.62-22.34,7.99
				c-4.63,11.43,0.04,41.49,11.41,51.25c2.14,1.84-1.28,5.47-5.28,6.64c-1.91,0.76-30.79,3.85-30.79,22.76v18.4c0,0,34.76,0,48.57,0
				c14.3,0,51.89,0,51.89,0l-1.02-19.55C117.07,104.36,99.62,99.22,95.73,97.78z"/>
			<path class="st23" d="M95.08,98.03c-6.35-2.25-5.31-8.68-4.05-10.85c7.11-12.23,7.7-39.87,1.68-50.47
				c-2.99-5.22-8.42-8.1-15.56-9.23c-4.22-0.67-5.11,3.14-10.19,4.04c-9.21,1.63-19.38,1.75-21.94,8.08
				c-4.6,11.41,0.03,40.83,11.36,50.64c2.22,1.93-1.39,6-5.38,7.16c-1.9,0.76-30.32,3.69-30.32,22.46v18.42c0,0,34.1,0,47.85,0
				c14.23,0,51.3,0,51.3,0l-0.99-19.43C116.64,104.46,98.85,99.43,95.08,98.03z"/>
			<path class="st24" d="M94.42,98.28c-6.2-2.19-5.31-8.98-4.03-11.13c7.26-12.21,7.95-39.74,2.04-50.28
				c-2.9-5.18-8.22-8.06-15.26-9.17c-4.25-0.67-5.14,3.18-10.21,4.11c-9.09,1.66-19.01,1.88-21.54,8.17
				c-4.58,11.4,0.02,40.17,11.3,50.03c2.3,2.01-1.5,6.52-5.47,7.68c-1.89,0.76-29.85,3.54-29.85,22.15v18.45c0,0,33.45,0,47.12,0
				c14.15,0,50.71,0,50.71,0l-0.95-19.3C116.21,104.57,98.07,99.64,94.42,98.28z"/>
			<path class="st25" d="M93.77,98.53c-6.05-2.12-5.32-9.28-4.02-11.41c7.41-12.19,8.18-39.6,2.4-50.1
				c-2.82-5.14-8.02-8.02-14.96-9.12c-4.28-0.68-5.17,3.23-10.23,4.18c-8.96,1.69-18.64,2.01-21.15,8.26
				c-4.56,11.38,0.01,39.52,11.24,49.42c2.38,2.1-1.61,7.04-5.56,8.2c-1.88,0.76-29.38,3.38-29.38,21.85v18.47c0,0,32.8,0,46.39,0
				c14.07,0,50.12,0,50.12,0l-0.92-19.17C115.78,104.67,97.3,99.85,93.77,98.53z"/>
			<path class="st26" d="M93.11,98.78c-5.9-2.06-5.32-9.58-4.01-11.68c7.56-12.17,8.4-39.46,2.77-49.91
				c-2.75-5.09-7.82-7.98-14.65-9.06c-4.31-0.68-5.19,3.27-10.25,4.25c-8.84,1.71-18.27,2.14-20.75,8.35
				c-4.53,11.37,0,38.87,11.19,48.81c2.46,2.19-1.73,7.57-5.65,8.72c-1.87,0.76-28.9,3.22-28.9,21.54v18.49c0,0,32.14,0,45.67,0
				c14,0,49.52,0,49.52,0l-0.89-19.05C115.35,104.77,96.53,100.06,93.11,98.78z"/>
			<path class="st27" d="M92.46,99.03c-5.74-1.99-5.32-9.87-4-11.96c7.71-12.15,8.63-39.32,3.13-49.72
				c-2.67-5.05-7.62-7.94-14.35-9.01c-4.34-0.69-5.22,3.31-10.26,4.31c-8.72,1.74-17.89,2.27-20.35,8.44
				c-4.51,11.35-0.01,38.21,11.13,48.2c2.54,2.27-1.84,8.09-5.74,9.24c-1.86,0.75-28.43,3.07-28.43,21.24v18.51c0,0,31.49,0,44.94,0
				c13.92,0,48.93,0,48.93,0l-0.86-18.92C114.91,104.87,95.75,100.27,92.46,99.03z"/>
			<path class="st28" d="M91.81,99.28c-5.59-1.92-5.33-10.17-3.99-12.24c7.87-12.12,8.86-39.17,3.49-49.54
				c-2.59-5-7.42-7.9-14.05-8.95c-4.37-0.69-5.25,3.35-10.28,4.38c-8.6,1.76-17.52,2.4-19.95,8.53C42.54,52.8,47,79.03,58.1,89.05
				c2.61,2.36-1.95,8.61-5.83,9.77c-1.85,0.75-27.96,2.91-27.96,20.93v18.53c0,0,30.83,0,44.21,0c13.85,0,48.34,0,48.34,0
				l-0.83-18.79C114.48,104.97,94.98,100.48,91.81,99.28z"/>
			<path class="st29" d="M91.15,99.53c-5.44-1.86-5.33-10.47-3.98-12.52c8.02-12.1,9.09-39.03,3.86-49.35
				c-2.51-4.96-7.22-7.86-13.75-8.9c-4.4-0.7-5.27,3.39-10.3,4.45c-8.47,1.79-17.15,2.53-19.56,8.62
				c-4.46,11.32-0.04,36.92,11.02,46.98c2.69,2.45-2.06,9.14-5.93,10.29c-1.84,0.75-27.49,2.75-27.49,20.63v18.56
				c0,0,30.18,0,43.49,0c13.77,0,47.75,0,47.75,0l-0.8-18.67C114.05,105.07,94.2,100.69,91.15,99.53z"/>
			<path class="st30" d="M90.5,99.78c-5.29-1.79-5.33-10.77-3.96-12.79c8.17-12.08,9.31-38.89,4.22-49.16
				c-2.44-4.92-7.01-7.82-13.45-8.84c-4.43-0.71-5.3,3.43-10.32,4.52c-8.35,1.81-16.78,2.65-19.16,8.71
				c-4.43,11.3-0.06,36.27,10.96,46.36c2.77,2.54-2.18,9.66-6.02,10.81c-1.83,0.75-27.01,2.6-27.01,20.32v18.58c0,0,29.53,0,42.76,0
				c13.7,0,47.16,0,47.16,0l-0.77-18.54C113.62,105.18,93.43,100.9,90.5,99.78z"/>
			<path class="st31" d="M89.85,100.03c-5.14-1.73-5.33-11.07-3.95-13.07c8.33-12.06,9.54-38.75,4.59-48.98
				c-2.36-4.87-6.81-7.78-13.15-8.79C72.87,28.48,72,32.66,67,33.78c-8.23,1.83-16.41,2.78-18.76,8.8
				c-4.41,11.29-0.08,35.63,10.91,45.75c2.85,2.62-2.29,10.18-6.11,11.33c-1.82,0.75-26.54,2.44-26.54,20.02v18.6
				c0,0,28.87,0,42.03,0c13.62,0,46.56,0,46.56,0l-0.74-18.41C113.19,105.28,92.66,101.11,89.85,100.03z"/>
			<path class="st32" d="M89.19,100.28c-4.99-1.66-5.34-11.37-3.94-13.35c8.49-12.03,9.77-38.61,4.95-48.79
				c-2.28-4.83-6.61-7.74-12.85-8.73C72.86,28.69,72,32.91,67,34.06c-8.11,1.86-16.03,2.91-18.37,8.89
				c-4.39,11.27-0.09,34.98,10.85,45.14c2.92,2.71-2.4,10.71-6.2,11.85c-1.81,0.75-26.07,2.28-26.07,19.71v18.62
				c0,0,28.22,0,41.31,0c13.55,0,45.97,0,45.97,0l-0.71-18.29C112.76,105.38,91.88,101.33,89.19,100.28z"/>
			<path class="st33" d="M88.54,100.53c-4.83-1.59-5.34-11.66-3.93-13.62c8.64-12.01,9.99-38.46,5.31-48.6
				c-2.21-4.78-6.41-7.7-12.54-8.68c-4.52-0.72-5.38,3.55-10.37,4.72c-7.98,1.88-15.66,3.04-17.97,8.98
				c-4.36,11.26-0.11,34.34,10.79,44.53c3,2.8-2.52,11.23-6.29,12.37c-1.8,0.75-25.6,2.13-25.6,19.41v18.64c0,0,27.56,0,40.58,0
				c13.47,0,45.38,0,45.38,0l-0.67-18.16C112.32,105.48,91.11,101.54,88.54,100.53z"/>
			<path class="st34" d="M87.88,100.78c-4.68-1.53-5.34-11.96-3.92-13.9c8.8-11.98,10.22-38.32,5.68-48.42
				c-2.13-4.74-6.21-7.66-12.24-8.62c-4.55-0.73-5.41,3.59-10.39,4.79c-7.86,1.9-15.29,3.17-17.57,9.07
				c-4.34,11.24-0.13,33.69,10.74,43.92c3.07,2.89-2.63,11.75-6.38,12.9c-1.79,0.75-25.12,1.97-25.12,19.11v18.66
				c0,0,26.91,0,39.85,0c13.39,0,44.79,0,44.79,0l-0.64-18.03C111.89,105.58,90.33,101.75,87.88,100.78z"/>
			<path class="st35" d="M87.23,101.03c-4.53-1.46-5.34-12.26-3.91-14.18c8.96-11.96,10.44-38.18,6.04-48.23
				c-2.06-4.69-6.01-7.62-11.94-8.57c-4.58-0.74-5.44,3.63-10.41,4.86c-7.74,1.92-14.92,3.3-17.17,9.16
				c-4.31,11.23-0.15,33.05,10.68,43.31c3.15,2.98-2.74,12.28-6.48,13.42c-1.78,0.75-24.65,1.81-24.65,18.8v18.69
				c0,0,26.26,0,39.13,0c13.32,0,44.2,0,44.2,0l-0.61-17.91C111.46,105.68,89.56,101.96,87.23,101.03z"/>
			<path class="st36" d="M86.58,101.28c-4.38-1.4-5.35-12.56-3.89-14.46c9.12-11.93,10.65-38.03,6.4-48.05
				c-1.99-4.65-5.81-7.58-11.64-8.51c-4.62-0.74-5.47,3.67-10.43,4.93c-7.62,1.94-14.55,3.43-16.78,9.25
				c-4.29,11.21-0.18,32.41,10.63,42.7c3.22,3.07-2.85,12.8-6.57,13.94c-1.77,0.74-24.18,1.66-24.18,18.5v18.71c0,0,25.6,0,38.4,0
				c13.24,0,43.6,0,43.6,0l-0.58-17.78C111.03,105.79,88.78,102.17,86.58,101.28z"/>
			<path class="st37" d="M85.92,101.53c-4.23-1.33-5.35-12.85-3.88-14.73c9.28-11.9,10.88-37.89,6.77-47.86
				c-1.91-4.6-5.6-7.54-11.34-8.46c-4.65-0.75-5.49,3.7-10.45,5c-7.5,1.96-14.17,3.56-16.38,9.34C46.38,56,50.45,76.58,61.21,86.9
				c3.3,3.16-2.97,13.32-6.66,14.46c-1.76,0.74-23.7,1.5-23.7,18.19v18.73c0,0,24.95,0,37.67,0c13.17,0,43.01,0,43.01,0l-0.55-17.65
				C110.6,105.89,88.01,102.38,85.92,101.53z"/>
			<path class="st38" d="M85.27,101.78c-4.07-1.27-5.35-13.15-3.87-15.01c9.47-11.85,11.1-37.74,7.13-47.67
				c-1.83-4.56-5.4-7.5-11.04-8.4c-4.68-0.75-5.53,3.73-10.46,5.06c-7.38,1.96-13.8,3.68-15.98,9.43
				c-4.24,11.18-0.22,31.13,10.51,41.48c3.37,3.25-3.08,13.84-6.75,14.98c-1.75,0.74-23.23,1.34-23.23,17.89v18.75
				c0,0,24.3,0,36.95,0c13.09,0,42.42,0,42.42,0l-0.52-17.53C110.17,105.99,87.24,102.59,85.27,101.78z"/>
			<path class="st39" d="M84.61,102.03c-3.92-1.2-5.35-13.45-3.86-15.29c9.62-11.83,11.33-37.6,7.49-47.49
				c-1.76-4.51-5.2-7.46-10.73-8.35c-4.71-0.76-5.55,3.77-10.48,5.13c-7.26,1.99-13.43,3.81-15.58,9.52
				c-4.22,11.16-0.26,30.5,10.46,40.87c3.44,3.35-3.19,14.37-6.84,15.5c-1.74,0.74-22.76,1.19-22.76,17.58v18.77
				c0,0,23.64,0,36.22,0c13.02,0,41.83,0,41.83,0l-0.49-17.4C109.73,106.09,86.46,102.8,84.61,102.03z"/>
			<path class="st40" d="M83.96,102.28c-3.77-1.13-5.35-13.75-3.85-15.57c9.77-11.81,11.56-37.46,7.86-47.3
				c-1.68-4.47-5-7.42-10.43-8.29c-4.74-0.76-5.58,3.81-10.5,5.2c-7.14,2.01-13.06,3.94-15.19,9.61
				c-4.19,11.15-0.27,29.85,10.4,40.26c3.52,3.43-3.31,14.89-6.93,16.03c-1.73,0.74-22.29,1.03-22.29,17.28v18.8
				c0,0,22.99,0,35.49,0c12.94,0,41.24,0,41.24,0l-0.46-17.27C109.3,106.19,85.69,103.01,83.96,102.28z"/>
		</g>
		<g>
			<path class="st55" d="M94.73,62.86c-1.98,5.7-4.07,6.19-6.54,5.26l1.46-9.62c0.22,0,3.45-2.09,5.02-0.42
				C95.83,59.31,95.21,61.49,94.73,62.86z"/>
			
				<linearGradient id="SVGID_00000047051119043788470560000003996694434758181010_" gradientUnits="userSpaceOnUse" x1="50.814" y1="100.6373" x2="83.7094" y2="100.6373">
				<stop  offset="0" style="stop-color:#FFAFA3"/>
				<stop  offset="0.1516" style="stop-color:#FFC0B3"/>
				<stop  offset="0.3178" style="stop-color:#FFCBBE"/>
				<stop  offset="0.5" style="stop-color:#FFCFC1"/>
				<stop  offset="0.6716" style="stop-color:#FFCABC"/>
				<stop  offset="0.8724" style="stop-color:#FFBCAF"/>
				<stop  offset="1" style="stop-color:#FFAFA3"/>
			</linearGradient>
			<path style="fill:url(#SVGID_00000047051119043788470560000003996694434758181010_);" d="M83.59,97.23
				c-4.69-1.33-3.2-7.03-3.2-13.16c-3.85,1.45-9.04,5.82-13.13,5.82c-4.09,0-9.28-4.36-13.13-5.82c0,6.13,1.31,11.83-3.2,13.16
				l-0.11,13.4l16.45,6.57l16.45-6.57L83.59,97.23z"/>
			<path class="st55" d="M39.79,62.86c1.98,5.7,4.08,6.19,6.55,5.26l-1.46-9.62c-0.22,0-3.44-2.09-5.02-0.42
				C38.69,59.31,39.32,61.49,39.79,62.86z"/>
			
				<radialGradient id="SVGID_00000078732814130838742110000012175977916168750986_" cx="67.2616" cy="68.129" r="23.2977" gradientUnits="userSpaceOnUse">
				<stop  offset="0" style="stop-color:#FFCFC1"/>
				<stop  offset="0.4568" style="stop-color:#FFCDBF"/>
				<stop  offset="0.7136" style="stop-color:#FFC4B7"/>
				<stop  offset="0.9201" style="stop-color:#FFB7AA"/>
				<stop  offset="1" style="stop-color:#FFAFA3"/>
			</radialGradient>
			<path style="fill:url(#SVGID_00000078732814130838742110000012175977916168750986_);" d="M67.26,45.31
				c-3.27,0-24.87-0.41-23.72,9.67c1.03,6.24,2.82,17.46,4.87,23.35c3.61,10.38,13.41,12.63,18.85,12.63
				c5.43,0,15.24-2.25,18.84-12.63c2.05-5.89,3.84-17.11,4.87-23.35C92.13,44.9,70.53,45.31,67.26,45.31z"/>
			
				<radialGradient id="SVGID_00000168094932714442787950000001160168658035673272_" cx="66.5276" cy="34.7282" r="29.1241" gradientUnits="userSpaceOnUse">
				<stop  offset="0" style="stop-color:#FEC36F"/>
				<stop  offset="0.7446" style="stop-color:#FDB054"/>
				<stop  offset="0.993" style="stop-color:#FDA94A"/>
			</radialGradient>
			<path style="fill:url(#SVGID_00000168094932714442787950000001160168658035673272_);" d="M42.83,37.18
				c4.22-5.96,12.37-6,19.55-6.05c6.54-0.04,12.74-0.07,14.14-5.01c7.51,0.55,13.16,4.33,15.95,10.69
				c2.43,5.55,0.17,13.64-1.49,17.62c-0.64-6.07-12.06-7.74-18.08-5.9c-3.89,1.19-9.31,5.69-15.68,6.81
				c-5.99,1.05-13.52-0.61-13.52-0.61C41.16,51.02,38.3,43.56,42.83,37.18z"/>
			
				<linearGradient id="SVGID_00000106868724614564184920000009911852665068652963_" gradientUnits="userSpaceOnUse" x1="67.2605" y1="138.2824" x2="67.2605" y2="97.234">
				<stop  offset="0.2528" style="stop-color:#EEF1F7"/>
				<stop  offset="1" style="stop-color:#FFFFFF"/>
			</linearGradient>
			<path style="fill:url(#SVGID_00000106868724614564184920000009911852665068652963_);" d="M104.09,103.36L104.09,103.36
				c-4.31-2.39-8.45-3.22-12.09-3.96c-2.32-0.47-6.55-1.42-8.4-2.17c0,0,0.12,5.56-16.33,5.56c-16.45,0-16.34-5.56-16.34-5.56
				c-1.85,0.74-6.08,1.7-8.4,2.17c-3.65,0.74-7.78,1.57-12.09,3.97v-0.01c-4.84,2.69-8.95,8.03-8.95,16v18.92c0,0,32.38,0,45.77,0
				c13.87,0,45.77,0,45.77,0v-18.92C113.03,112.5,108.92,106.05,104.09,103.36z"/>
			
				<linearGradient id="SVGID_00000075139588771704384750000014396234531602525830_" gradientUnits="userSpaceOnUse" x1="67.2621" y1="138.2824" x2="67.2621" y2="111.0472">
				<stop  offset="0" style="stop-color:#72CFC4"/>
				<stop  offset="1" style="stop-color:#007172"/>
			</linearGradient>
			<path style="fill:url(#SVGID_00000075139588771704384750000014396234531602525830_);" d="M70.22,111.05l-2.95,0.07l-2.95-0.07
				c-1.49,2.19-3.82,14.33-5.62,27.24h8.58h8.58C74.25,125.83,71.71,113.24,70.22,111.05z"/>
			<g>
				<path class="st46" d="M67.12,112.63c1.46,0,3.57-0.62,3.57-0.62c-0.13-0.21-0.35-0.77-0.48-0.96l-2.95,0.07l-2.95-0.07
					c-0.13,0.19-0.38,0.76-0.51,0.97C63.8,112.02,65.23,112.63,67.12,112.63z"/>
			</g>
			
				<linearGradient id="SVGID_00000022551233364368104940000011468396572716548505_" gradientUnits="userSpaceOnUse" x1="67.2626" y1="111.7249" x2="67.2626" y2="101.0002">
				<stop  offset="0" style="stop-color:#72CFC4"/>
				<stop  offset="1" style="stop-color:#007172"/>
			</linearGradient>
			<path style="fill:url(#SVGID_00000022551233364368104940000011468396572716548505_);" d="M71.58,101c-1.36,0.32-2.8,0.5-4.32,0.5
				c-1.52,0-2.96-0.18-4.32-0.5l-1.58,5.42l2.95,4.62c0,0,1.42,0.68,2.95,0.68c1.66,0,2.95-0.68,2.95-0.68l2.95-4.62L71.58,101z"/>
			<g>
				<path class="st46" d="M88.4,99.11c-2.18-0.55-6.95-1.98-7.36-3.75c0,0-3.45,4.44-10.96,5.75l2.71,9
					C84.24,106.15,88.4,99.11,88.4,99.11z"/>
			</g>
			<g>
				<path class="st46" d="M46.13,99.11c2.18-0.55,6.95-1.98,7.36-3.75c0,0,3.45,4.44,10.96,5.75l-2.71,9
					C50.28,106.15,46.13,99.11,46.13,99.11z"/>
			</g>
			<path class="st0" d="M89.1,98.77c-3.41-0.77-6.81-2.14-8.06-3.41c0,0-3.45,4.44-10.96,5.75l2.98,7.58
				C82.26,105.9,89.1,98.77,89.1,98.77z"/>
			<path class="st0" d="M45.43,98.77c3.41-0.77,6.81-2.14,8.06-3.41c0,0,3.45,4.44,10.96,5.75l-2.98,7.58
				C52.26,105.9,45.43,98.77,45.43,98.77z"/>
		</g>
	</g>
</g>
</svg>
