<?xml version="1.0" encoding="utf-8"?>
<!-- Generator: Adobe Illustrator 27.1.0, SVG Export Plug-In . SVG Version: 6.00 Build 0)  -->
<svg version="1.1" id="Layer_1" xmlns="http://www.w3.org/2000/svg" xmlns:xlink="http://www.w3.org/1999/xlink" x="0px" y="0px"
	 viewBox="0 0 166.47 164.4" style="enable-background:new 0 0 166.47 164.4;" xml:space="preserve">
<style type="text/css">
	.st0{fill:#FFFFFF;}
	.st1{display:none;}
	.st2{display:inline;}
	.st3{fill:#41474F;}
	.st4{fill:#036AAA;}
	.st5{fill-rule:evenodd;clip-rule:evenodd;fill:#41474F;}
	.st6{fill-rule:evenodd;clip-rule:evenodd;fill:#036AAA;}
	.st7{fill:#050505;}
	.st8{opacity:0.2;fill:#1B558A;}
	
		.st9{clip-path:url(#SVGID_00000021095128550029285020000003803921592710460055_);fill:url(#SVGID_00000094607826675252018950000017175232282641647790_);}
	.st10{fill:#333333;}
	.st11{fill:#0E4681;}
	.st12{fill:none;stroke:#318DCC;stroke-width:4;stroke-miterlimit:10;}
	.st13{fill:#38434B;}
	.st14{fill:url(#SVGID_00000013161500553168539500000000347292895015205547_);}
	.st15{fill:url(#SVGID_00000033363256913893925540000000986980766453612683_);}
	.st16{fill:url(#SVGID_00000173157913167407219890000000460242093690768292_);}
	.st17{fill:#B6D6EF;}
	.st18{fill:#FCFDFD;}
	.st19{fill:#F9FAFB;}
	.st20{fill:#F6F8F8;}
	.st21{fill:#F3F5F6;}
	.st22{fill:#F0F3F4;}
	.st23{fill:#EDF0F2;}
	.st24{fill:#EAEEF0;}
	.st25{fill:#E7EBEE;}
	.st26{fill:#E4E9EB;}
	.st27{fill:#E1E6E9;}
	.st28{fill:#DEE4E7;}
	.st29{fill:#DBE1E5;}
	.st30{fill:#D8DFE3;}
	.st31{fill:#D5DCE1;}
	.st32{fill:#D2DADE;}
	.st33{fill:#CFD7DC;}
	.st34{fill:#CCD5DA;}
	.st35{fill:#C9D2D8;}
	.st36{fill:#C6D0D6;}
	.st37{fill:#C3CDD4;}
	.st38{fill:#C0CBD1;}
	.st39{fill:#BDC8CF;}
	.st40{fill:#BAC6CD;}
	.st41{fill:url(#SVGID_00000094612101319572911940000012581704795532617862_);}
	.st42{fill:#E3F2FD;}
	.st43{fill:url(#SVGID_00000104694849859825290990000010845086087577927615_);}
	.st44{fill:#C2185B;}
	.st45{fill:url(#SVGID_00000049190921750187991440000017290418537064216993_);}
	.st46{fill:#CFD8DC;}
	.st47{fill:#EFF9FF;}
	.st48{fill:url(#SVGID_00000065785220299686695050000015607198085209968062_);}
	.st49{fill:url(#SVGID_00000129891838028100985070000005797559110929173651_);}
	.st50{fill:url(#SVGID_00000039855616475347105530000011999056926694417034_);}
	.st51{fill:url(#SVGID_00000041287044291840622080000010755766753017599898_);}
	.st52{fill:url(#SVGID_00000000924306118647761900000010064503802900538503_);}
	.st53{fill:#B0BEC5;}
	.st54{fill:url(#SVGID_00000026144023068981794980000005446090536348999316_);}
	.st55{fill:#FFB6A9;}
	.st56{fill:url(#SVGID_00000136407771423493914920000010357528038165616000_);}
	.st57{fill:url(#SVGID_00000024683103117904482610000000348390557013142413_);}
	.st58{fill:#FEFEFE;}
	.st59{fill:#FBFBFC;}
	.st60{fill:#F8F9FA;}
	.st61{fill:#F5F6F7;}
	.st62{fill:#F2F4F5;}
	.st63{fill:#EFF2F3;}
	.st64{fill:#ECEFF1;}
	.st65{fill:#E9EDEF;}
	.st66{fill:#E7ECEE;}
	.st67{fill:#E6EAED;}
	.st68{fill:#E3E8EA;}
	.st69{fill:#E1E7E9;}
	.st70{fill:#E0E5E8;}
	.st71{fill:#DDE3E6;}
	.st72{fill:url(#SVGID_00000070806671439753505570000012866083994482526654_);}
	.st73{fill:url(#SVGID_00000091732749622407171810000011132973749754041259_);}
	.st74{fill:url(#SVGID_00000081640725354815232720000014912597128320009915_);}
	.st75{fill:url(#SVGID_00000018959844096950080330000011240206741522611875_);}
	.st76{opacity:0.5;fill:#FFFFFF;}
	.st77{fill:url(#SVGID_00000047779638309629498360000011572934473226838957_);}
	.st78{fill:url(#SVGID_00000046309992146190634230000014087254295130311554_);}
	.st79{fill:url(#SVGID_00000039840243664866773580000000438010957703566991_);}
	.st80{fill:#FBFCFC;}
	.st81{fill:#F7F8F9;}
	.st82{fill:#EBEFF0;}
	.st83{fill:#E3E8EB;}
	.st84{fill:#DFE5E8;}
	.st85{fill:#DBE2E5;}
	.st86{fill:#D7DEE2;}
	.st87{fill:#D3DBDF;}
	.st88{fill:#D0D8DC;}
	.st89{fill:#CCD5D9;}
	.st90{fill:#C8D1D6;}
	.st91{fill:#C4CED3;}
	.st92{fill:#C0CBD0;}
	.st93{fill:#BCC8CD;}
	.st94{fill:#B8C4CB;}
	.st95{fill:#B4C1C8;}
	.st96{fill:#ACBBC2;}
	.st97{fill:#A8B7BF;}
	.st98{fill:#A4B4BC;}
	.st99{fill:#FEFCFC;}
	.st100{fill:#FCFAF9;}
	.st101{fill:#FBF7F6;}
	.st102{fill:#F9F4F3;}
	.st103{fill:#F8F1F0;}
	.st104{fill:#F6EFED;}
	.st105{fill:#F5ECEA;}
	.st106{fill:#F4E9E7;}
	.st107{fill:#F2E6E4;}
	.st108{fill:#F1E4E1;}
	.st109{fill:#EFE1DE;}
	.st110{fill:#EEDEDB;}
	.st111{fill:#ECDBD8;}
	.st112{fill:#EBD9D5;}
	.st113{fill:#E9D6D2;}
	.st114{fill:#E8D3CF;}
	.st115{fill:#E7D0CC;}
	.st116{fill:#E5CEC9;}
	.st117{fill:#E4CBC6;}
	.st118{fill:#E2C8C3;}
	.st119{fill:#E1C5C0;}
	.st120{fill:#DFC3BD;}
	.st121{fill:#DEC0BA;}
	.st122{fill:#FEFDFD;}
	.st123{fill:#FDFCFB;}
	.st124{fill:#FCFAFA;}
	.st125{fill:#FBF8F8;}
	.st126{fill:#FAF7F6;}
	.st127{fill:#F9F5F4;}
	.st128{fill:#F8F3F3;}
	.st129{fill:#F7F2F1;}
	.st130{fill:#F6F0EF;}
	.st131{fill:#F5EEED;}
	.st132{fill:#F4EDEB;}
	.st133{fill:#F3EBEA;}
	.st134{fill:#F2EAE8;}
	.st135{fill:#F1E8E6;}
	.st136{fill:#F0E6E4;}
	.st137{fill:#EFE5E2;}
	.st138{fill:#EEE3E1;}
	.st139{fill:#EDE1DF;}
	.st140{fill:#ECE0DD;}
	.st141{fill:#EBDEDB;}
	.st142{fill:#EADCDA;}
	.st143{fill:#E9DBD8;}
	.st144{fill:#E8D9D6;}
	.st145{fill:url(#SVGID_00000147189209133307772790000010839335239076441493_);}
	.st146{fill:url(#SVGID_00000124151366496935581660000010143507230124483980_);}
	.st147{fill:url(#SVGID_00000072983979374458328780000005755332756701561251_);}
	.st148{fill:url(#SVGID_00000031205089440753913240000008837085449009083046_);}
	.st149{fill:#FCF9F9;}
	.st150{fill:#F9F4F4;}
	.st151{fill:#F6EEEE;}
	.st152{fill:#F4E8E8;}
	.st153{fill:#F1E3E3;}
	.st154{fill:#EEDDDD;}
	.st155{fill:#EBD7D7;}
	.st156{fill:#E8D2D2;}
	.st157{fill:#E5CCCC;}
	.st158{fill:#E2C6C6;}
	.st159{fill:#DFC1C1;}
	.st160{fill:#DDBBBB;}
	.st161{fill:#DAB6B6;}
	.st162{fill:#D7B0B0;}
	.st163{fill:#D4AAAA;}
	.st164{fill:#D1A5A5;}
	.st165{fill:#CE9F9F;}
	.st166{fill:#CB9999;}
	.st167{fill:#C89494;}
	.st168{fill:#C68E8E;}
	.st169{fill:#C38888;}
	.st170{fill:#C08383;}
	.st171{fill:#BD7D7D;}
	.st172{fill:url(#SVGID_00000115481745857877892220000004074645267806492855_);}
	.st173{fill:url(#SVGID_00000111903416345429906560000017197410849576447675_);}
	.st174{fill:#FDFBFA;}
	.st175{fill:#F8F2F1;}
	.st176{fill:#F6EEED;}
	.st177{fill:#F4EAE8;}
	.st178{fill:#F2E6E3;}
	.st179{fill:#F0E1DF;}
	.st180{fill:#EEDDDA;}
	.st181{fill:#EBD9D6;}
	.st182{fill:#E9D5D1;}
	.st183{fill:#E7D1CC;}
	.st184{fill:#E5CCC8;}
	.st185{fill:#E3C8C3;}
	.st186{fill:#E1C4BE;}
	.st187{fill:#DCBCB5;}
	.st188{fill:#DAB7B1;}
	.st189{fill:#D8B3AC;}
	.st190{fill:#D6AFA7;}
	.st191{fill:#D4ABA3;}
	.st192{fill:#D1A69E;}
	.st193{fill:#CFA29A;}
	.st194{fill:#CD9E95;}
	.st195{fill:url(#SVGID_00000044135856649111552010000007903733527646458553_);}
	.st196{fill:url(#SVGID_00000178927046294442074620000016624505026889165966_);}
	.st197{fill:url(#SVGID_00000052076892393880124400000011160018522880607669_);}
	.st198{fill:url(#SVGID_00000023962483931706419730000002587026565720127898_);}
	.st199{fill:url(#SVGID_00000087398958486432219810000016593241710895421327_);}
	.st200{fill:url(#SVGID_00000106105217666703072980000008158818442264930224_);}
	.st201{fill:url(#SVGID_00000018236464644867632230000005081119574725614001_);}
	.st202{fill:url(#SVGID_00000111164740061922873080000018047271837117095101_);}
	.st203{fill:url(#SVGID_00000008142924540877411920000007883550312318462887_);}
	.st204{fill:url(#SVGID_00000172401935131226494820000018322954488117883802_);}
	.st205{fill:url(#SVGID_00000132058415845543324470000002383377604766371236_);}
	.st206{fill:url(#SVGID_00000149382221875135592970000010812173044893137560_);}
	.st207{fill:url(#SVGID_00000138559032698198233470000001642753857764312201_);}
	.st208{fill:#FB8C00;}
	.st209{fill:url(#SVGID_00000066485478177000190970000016106137709066273945_);}
	.st210{fill:url(#SVGID_00000137133462826074498890000014778121049391701659_);}
	.st211{fill:url(#SVGID_00000143602083527330629400000013983511819607070362_);}
	.st212{fill:#D7CCC8;}
	.st213{fill:url(#SVGID_00000078011570046297749420000018339284336503195556_);}
	.st214{fill:#231F20;}
	.st215{fill:url(#SVGID_00000002371843883607305940000000188141871538637230_);}
	.st216{fill:url(#SVGID_00000124871662731412761730000005618807378570537617_);}
	.st217{fill:url(#SVGID_00000161593903504981410720000001088302531871288217_);}
	.st218{fill:url(#SVGID_00000130638826468796815300000006125094776501194174_);}
	.st219{fill:url(#SVGID_00000131334092378489741310000015318324825571891882_);}
	.st220{fill:url(#SVGID_00000008116736697778246780000015263215111691975297_);}
	.st221{fill:#FCFCFD;}
	.st222{fill:#F8FAFA;}
	.st223{fill:#F5F7F8;}
	.st224{fill:#EEF2F3;}
	.st225{fill:#E8ECEE;}
	.st226{fill:#E5E9EC;}
	.st227{fill:#DBE1E4;}
	.st228{fill:#D7DFE2;}
	.st229{fill:#D4DCDF;}
	.st230{fill:#D1D9DD;}
	.st231{fill:#CDD7DA;}
	.st232{fill:#CAD4D8;}
	.st233{fill:#C7D1D6;}
	.st234{fill:#C0CCD1;}
	.st235{fill:#BDC9CE;}
	.st236{fill:#BAC6CC;}
	.st237{fill:#B6C4C9;}
	.st238{fill:#B3C1C7;}
	.st239{fill:#DC655A;}
	.st240{fill:url(#SVGID_00000044177776619058992500000015779510274393646223_);}
	.st241{fill:url(#SVGID_00000115509941396679032870000016844057439221248437_);}
	.st242{fill:url(#SVGID_00000026123680179142540110000002679548367964165024_);}
	.st243{fill:url(#SVGID_00000032637136981317751560000001983084964475016361_);}
	.st244{fill:url(#SVGID_00000081610835861585238070000006481639487218620339_);}
	.st245{fill:url(#SVGID_00000151524370054832937590000011910251914746049207_);}
	.st246{fill:url(#SVGID_00000084515011242766173200000008173505857605414021_);}
	.st247{fill:url(#SVGID_00000010294300734058831100000003854589126568116158_);}
	.st248{fill:url(#SVGID_00000170989744813017266270000012455820717782015118_);}
	.st249{fill:url(#SVGID_00000067212574772685797990000008692943159959239554_);}
	.st250{fill:url(#SVGID_00000157276697438591323390000005232955554362797221_);}
	.st251{fill:url(#SVGID_00000137830784999272680530000005704020144841086865_);}
	.st252{fill:url(#SVGID_00000106123221325929535450000016463163199399825057_);}
	.st253{fill:url(#SVGID_00000084523271799355254140000008703729535777575078_);}
	.st254{fill:url(#SVGID_00000094616000515057453570000003365061686178128010_);}
	.st255{fill:url(#SVGID_00000129885934902960928210000016987002936243361727_);}
	.st256{fill:url(#SVGID_00000049220009485952571210000016794968137110327455_);}
	.st257{fill:url(#SVGID_00000119091697207686863130000018409758023957790599_);}
	.st258{fill:url(#SVGID_00000055690099897728261600000004394162622190640008_);}
	.st259{fill:url(#SVGID_00000163760755185945079170000010194547173156292480_);}
	.st260{fill:url(#SVGID_00000067926877473618071690000015590433634548758926_);}
	.st261{fill:none;}
	.st262{fill:url(#SVGID_00000014593310916735046230000003938044388757486724_);}
	.st263{fill:#FFFFFF;fill-opacity:0.36;}
	.st264{fill:url(#SVGID_00000034078599451150239690000011415040558881602969_);}
	.st265{fill:url(#SVGID_00000052798883566300225670000000062412240221816713_);}
	.st266{fill:url(#SVGID_00000080170336945008921550000016280340136813186999_);}
	.st267{fill:url(#SVGID_00000171696930216535492460000002065100721391916960_);}
	.st268{fill:url(#SVGID_00000150791935620928443890000016228081722578159282_);}
	.st269{fill:url(#SVGID_00000008143147134228118020000006464967052322089879_);}
	.st270{fill:url(#SVGID_00000016773368802133569970000002353410873638261674_);}
	.st271{fill:url(#SVGID_00000074399969272318376940000001201282680368334478_);}
	.st272{fill:url(#SVGID_00000116208720512121906180000000199859807070315438_);}
	.st273{fill:url(#SVGID_00000037673954719790264500000014652204020379775382_);}
	.st274{fill:url(#SVGID_00000181772840097860010340000003193551037505022365_);}
	.st275{fill:url(#SVGID_00000053535484338264918610000013840757520682343828_);}
	.st276{fill:url(#SVGID_00000067947026008564998210000009913441510959215537_);}
	.st277{fill:url(#SVGID_00000060001610338809535390000016204471468018304929_);}
	.st278{fill:#EEF1F3;}
	.st279{fill:#E6EBED;}
	.st280{fill:#E2E7EA;}
	.st281{fill:#DAE0E4;}
	.st282{fill:#D6DDE1;}
	.st283{fill:#CDD6DA;}
	.st284{fill:#C9D3D7;}
	.st285{fill:#C5D0D4;}
	.st286{fill:#C1CCD1;}
	.st287{fill:#B9C5CB;}
	.st288{fill:#B5C2C8;}
	.st289{fill:#B1BFC5;}
	.st290{fill:#A8B8BF;}
	.st291{fill:#A0B1B9;}
	.st292{fill:url(#SVGID_00000097462210953948082340000012136684935584679052_);}
	.st293{fill:url(#SVGID_00000053518251306052098470000007319540333223791030_);}
	.st294{fill:#212121;}
	.st295{fill:url(#SVGID_00000103969717833102376550000005869424389762506669_);}
	.st296{fill:url(#SVGID_00000174591654671507558030000012224978772480834949_);}
	.st297{fill:url(#SVGID_00000016759664806506967270000007365129082083987120_);}
	.st298{fill:url(#SVGID_00000097459010423384941660000013990492183673968261_);}
	.st299{fill:url(#SVGID_00000117668166279678965150000005996490270971907721_);}
	.st300{fill:url(#SVGID_00000103971843603766343220000012047602058438340737_);}
	.st301{fill:url(#SVGID_00000129165155956258227360000000029996375136725944_);}
	.st302{fill:url(#SVGID_00000028297859838093065520000000739109785627109291_);}
	.st303{fill:url(#SVGID_00000103249100802407998480000003892099636324703884_);}
	.st304{fill:url(#SVGID_00000091695312659909774800000015825763015238694289_);}
	.st305{fill:#B5BECC;}
	.st306{fill:url(#SVGID_00000086667784941262620820000012503489901664557721_);}
	.st307{fill:#FFFFFF;fill-opacity:0.28;}
	.st308{opacity:0.25;}
	.st309{fill:url(#SVGID_00000100343080459218783050000010244773287361363627_);}
	.st310{fill:url(#SVGID_00000163765091233852260430000009738483246283598755_);}
	.st311{fill:url(#SVGID_00000149382783017832965770000016037200590668286361_);}
	.st312{fill:url(#SVGID_00000026136448795480193920000006008880302900623271_);}
	.st313{fill:url(#SVGID_00000012450560087826782610000018322910442411878830_);}
	.st314{fill:url(#SVGID_00000035488650513866278210000016768770249795086250_);}
	.st315{fill:url(#SVGID_00000168812149471089336930000005807791932547376301_);}
	.st316{fill:url(#SVGID_00000152970516555935119380000008819621695796799630_);}
	.st317{fill:url(#SVGID_00000068637235190762942530000014155992431696585100_);}
	.st318{fill:url(#SVGID_00000010298141591566059440000007787695987351808164_);}
	.st319{fill:url(#SVGID_00000075142232162725368690000011054374610896407227_);}
	.st320{fill:url(#SVGID_00000095306633384078761510000013470064984502825148_);}
	.st321{fill:url(#SVGID_00000000940783106685465230000010586306440794374591_);}
	.st322{fill:url(#SVGID_00000116227660421297106840000015637859968686801342_);}
	.st323{fill:url(#SVGID_00000083785066382804425140000002589814496976730014_);}
	.st324{fill:url(#SVGID_00000121976324099879811840000010115088801590292631_);}
	.st325{fill:url(#SVGID_00000132790492445577336720000011857258114597748906_);}
	.st326{fill:url(#SVGID_00000176007635741308697370000004054805964371018131_);}
	.st327{fill:url(#SVGID_00000011027581262698704990000011295291993594029451_);}
	.st328{fill:url(#SVGID_00000077291606033714330950000006051759716981049240_);}
	.st329{fill:url(#SVGID_00000151509644249946018500000009639135816874150827_);}
	.st330{fill:url(#SVGID_00000035493397914651830010000001726778675773876864_);}
	.st331{fill:url(#SVGID_00000154423699934906554400000007277637656094782636_);}
	.st332{fill:url(#SVGID_00000070819704292739185350000005544277639240135552_);}
	.st333{fill:url(#SVGID_00000054948384495061049250000016443151010528459151_);}
	.st334{fill:url(#SVGID_00000183241651792018760560000007775367839697246383_);}
	.st335{fill:url(#SVGID_00000056413016539303162970000016712425754976817039_);}
	.st336{fill:url(#SVGID_00000128465552131842711770000004513390200721650595_);}
	.st337{fill:url(#SVGID_00000167397289891133033180000010324527054518301314_);}
	.st338{fill:url(#SVGID_00000049937717342205731050000005753001245736079294_);}
	.st339{fill:url(#SVGID_00000084502924076161001640000009813602200423259064_);}
	.st340{fill:url(#SVGID_00000103955680205732613070000008819876402139319961_);}
	.st341{fill:url(#SVGID_00000127024693734402117950000003217268493396648088_);}
	.st342{fill:url(#SVGID_00000095326540316100607270000011119113577961454263_);}
	.st343{fill:url(#SVGID_00000055694530895379286840000000937395642302107014_);}
	.st344{fill:url(#SVGID_00000091010974115986165960000006017849329046987708_);}
	.st345{fill:url(#SVGID_00000103247925369865727380000005577208728353329312_);}
	.st346{fill:url(#SVGID_00000031899609064384595830000014425583768601991091_);}
	.st347{fill:url(#SVGID_00000043418639655648040860000000432045519954647188_);}
	.st348{fill:url(#SVGID_00000057126706913107394950000004391639668947453075_);}
	.st349{fill:url(#SVGID_00000040571487411159784650000014234498988837802134_);}
	.st350{fill:url(#SVGID_00000106144641416018020920000015181705674723182506_);}
	.st351{fill:url(#SVGID_00000115507634811121577260000006523691829831714735_);}
	.st352{fill:url(#SVGID_00000045597573198600607390000010303503180866530966_);}
	.st353{fill:url(#SVGID_00000054969749461170431120000005028378084624404881_);}
	.st354{fill:url(#SVGID_00000181803884427607991250000018149460491441769663_);}
	.st355{fill:url(#SVGID_00000131353098180963809330000014777252910583283894_);}
	.st356{fill:url(#SVGID_00000060734254546295595720000008186222597640636806_);}
	.st357{fill:url(#SVGID_00000090293983889415389680000004260151205797884599_);}
	.st358{fill:url(#SVGID_00000058552761216154699520000005009403583840129436_);}
	.st359{fill:url(#SVGID_00000101785346080405943900000006512637496875778724_);}
	.st360{fill:url(#SVGID_00000100371538106971552430000015001657854906123673_);}
	.st361{fill:url(#SVGID_00000023965239984720975830000011757633817390077832_);}
	.st362{fill:url(#SVGID_00000170254344690977076510000007749421905592674718_);}
	.st363{fill:url(#SVGID_00000016762891537062483660000004545723978734495874_);}
	.st364{fill:url(#SVGID_00000132771030591673345470000004785707380165947780_);}
	.st365{fill:url(#SVGID_00000170963199396656993870000000468219951431060898_);}
	.st366{fill:url(#SVGID_00000029765908102162809710000013416280159966941066_);}
	.st367{fill:url(#SVGID_00000178902040064880304660000008664574189926924190_);}
	.st368{fill:#E8B46C;}
	.st369{fill:url(#SVGID_00000165200443969036269290000011496171724311473812_);}
	.st370{fill:#D88A3B;}
	.st371{fill:url(#SVGID_00000034070327355661154150000011074288526742234508_);}
	.st372{fill:url(#SVGID_00000172436592973305129360000015938743031954590349_);}
	.st373{fill:url(#SVGID_00000168839869452161613680000006580398770782892949_);}
	.st374{fill:url(#SVGID_00000039105819974837249390000015138250354481197743_);}
	.st375{fill:#CCB384;}
	.st376{fill:url(#SVGID_00000023280835996792453460000003645623499983306125_);}
</style>
<g>
	<g>
		<path class="st0" d="M119,101.68c-6.36-5.14-3.65-19.2-3.48-21.69c1.09-15.83,0.56-29.09-6.78-39.3
			c-3.7-5.15-7.74-8.83-17.12-11.7c-4.86-1.49-13.19-1.65-18.99-0.73c-10.62,1.7-15.5,8.31-18.4,14.47
			c-5.1,10.81,0.68,60.43-3.73,61.53c-2.1,0.72-22.61,5.95-22.61,24.41v8.04c0,0,36.66,0,51.86,0c15.74,0,58.81,0,58.81,0
			l-2.34-18.23C133.04,105.11,123.31,105.16,119,101.68z"/>
		<path class="st18" d="M54.57,42.94c-3.13,6.67-1.96,27.18-1.4,42.51c0.36,9.98-0.01,18.25-1.84,18.9c-0.5,0.22-1.92,0.65-3.8,1.37
			c-5.96,2.27-17.6,8.24-18.89,20.45c-0.08,0.76-0.12,1.67-0.12,2.48v8.05c0,0,36.14,0,51.26,0c15.65,0,58.17,0,58.17,0l-1.29-10.01
			c0-0.15-1.06-8.11-1.14-8.18c-2.41-9.29-8.22-11.84-12.65-13.8c-1.84-0.81-3.5-1.59-4.73-2.66c-6.07-5.31-3.48-19.29-3.25-21.73
			c1.45-15.63,0.85-28.81-6.36-38.96c-3.57-5.02-7.51-8.65-16.55-11.59c-4.74-1.54-12.79-1.84-18.45-0.88
			c-4.85,0.83-8.75,2.55-11.69,4.85C58.37,36.43,56.15,39.56,54.57,42.94z"/>
		<path class="st19" d="M54.9,43.15c-3.19,6.85-1.73,27.32-0.83,42.41c0.57,9.64-0.02,18.03-1.93,18.89
			c-0.53,0.29-1.92,0.74-3.76,1.44c-5.77,2.2-17.89,8.37-19.16,20.27c-0.08,0.73-0.12,1.71-0.12,2.49v8.06c0,0,35.61,0,50.66,0
			c15.57,0,57.54,0,57.54,0l-1.29-10.01c0-0.3-1.07-8-1.23-8.15c-2.55-9.1-8.64-11.46-12.94-13.35c-1.81-0.79-3.41-1.63-4.6-2.76
			c-5.77-5.47-3.3-19.39-3.02-21.77c1.8-15.43,1.14-28.53-5.95-38.63c-3.43-4.89-7.29-8.48-15.98-11.47
			c-4.62-1.59-12.4-2.03-17.92-1.04c-4.77,0.86-8.86,2.46-11.91,4.68C58.83,36.85,56.51,39.68,54.9,43.15z"/>
		<path class="st20" d="M55.23,43.36c-3.25,7.02-1.51,27.44-0.26,42.31c0.78,9.29-0.04,17.81-2.02,18.88
			c-0.55,0.35-1.93,0.84-3.72,1.51c-5.59,2.13-18.17,8.5-19.42,20.1c-0.07,0.7-0.11,1.75-0.11,2.49v8.07c0,0,35.09,0,50.06,0
			c15.49,0,56.91,0,56.91,0l-1.29-10.02c0-0.44-1.07-7.9-1.31-8.11c-2.7-8.91-9.06-11.07-13.22-12.91
			c-1.77-0.76-3.31-1.66-4.48-2.86c-5.49-5.62-3.12-19.48-2.79-21.81c2.16-15.23,1.43-28.25-5.54-38.29
			c-3.3-4.76-7.07-8.3-15.41-11.36c-4.5-1.65-12.01-2.22-17.39-1.19c-4.69,0.89-8.97,2.36-12.14,4.51
			C59.28,37.27,56.88,39.8,55.23,43.36z"/>
		<path class="st21" d="M55.56,43.57c-3.31,7.19-1.29,27.56,0.31,42.2c0.98,8.93-0.05,17.59-2.1,18.87
			c-0.57,0.41-1.94,0.93-3.68,1.58c-5.4,2.06-18.46,8.63-19.68,19.92c-0.07,0.66-0.11,1.79-0.11,2.49v8.08c0,0,34.57,0,49.46,0
			c15.41,0,56.27,0,56.27,0l-1.29-10.02c0-0.59-1.08-7.79-1.4-8.08c-2.85-8.73-9.48-10.69-13.5-12.46c-1.74-0.74-3.22-1.7-4.36-2.96
			c-5.2-5.76-2.95-19.57-2.57-21.85c2.52-15.04,1.71-27.97-5.12-37.96c-3.17-4.63-6.85-8.14-14.84-11.24
			c-4.38-1.7-11.62-2.4-16.85-1.35c-4.6,0.93-9.08,2.26-12.36,4.34C59.74,37.68,57.24,39.92,55.56,43.57z"/>
		<path class="st22" d="M55.89,43.77c-3.37,7.37-1.08,27.67,0.88,42.1c1.17,8.58-0.07,17.36-2.19,18.86
			c-0.59,0.47-1.94,1.02-3.64,1.65c-5.21,1.98-18.75,8.77-19.94,19.74c-0.07,0.63-0.1,1.83-0.1,2.5v8.09c0,0,34.05,0,48.86,0
			c15.33,0,55.64,0,55.64,0l-1.3-10.02c0-0.74-1.09-7.68-1.48-8.05c-3-8.54-9.9-10.31-13.78-12.01c-1.7-0.71-3.12-1.73-4.23-3.06
			c-4.92-5.89-2.77-19.67-2.34-21.88c2.89-14.85,2-27.69-4.71-37.62c-3.04-4.5-6.63-7.97-14.26-11.13
			c-4.26-1.76-11.22-2.59-16.32-1.51c-4.52,0.96-9.2,2.16-12.58,4.17C60.19,38.09,57.61,40.04,55.89,43.77z"/>
		<path class="st23" d="M56.23,43.98c-3.44,7.54-0.88,27.77,1.45,42c1.35,8.22-0.08,17.14-2.28,18.85
			c-0.62,0.53-1.95,1.11-3.61,1.72c-5.03,1.91-19.03,8.9-20.2,19.57c-0.06,0.59-0.09,1.87-0.09,2.5v8.1c0,0,33.52,0,48.26,0
			c15.25,0,55,0,55,0l-1.3-10.02c0-0.89-1.09-7.58-1.57-8.01c-3.15-8.35-10.31-9.93-14.06-11.57c-1.67-0.69-3.03-1.77-4.11-3.16
			c-4.65-6.01-2.59-19.76-2.11-21.92c3.26-14.66,2.28-27.41-4.29-37.29c-2.91-4.37-6.41-7.81-13.69-11.01
			c-4.14-1.82-10.83-2.78-15.78-1.66c-4.44,1-9.31,2.06-12.8,4C60.64,38.5,57.97,40.16,56.23,43.98z"/>
		<path class="st24" d="M56.56,44.19c-3.5,7.71-0.68,27.87,2.02,41.9c1.52,7.86-0.1,16.92-2.37,18.84c-0.64,0.59-1.95,1.2-3.57,1.79
			c-4.84,1.84-19.32,9.03-20.46,19.39c-0.06,0.56-0.09,1.91-0.09,2.5v8.11c0,0,33,0,47.66,0c15.17,0,54.37,0,54.37,0l-1.3-10.02
			c0-1.03-1.1-7.47-1.65-7.98c-3.29-8.16-10.73-9.55-14.34-11.12c-1.63-0.67-2.94-1.8-3.99-3.26c-4.38-6.12-2.41-19.86-1.88-21.96
			c3.63-14.47,2.57-27.12-3.88-36.95c-2.78-4.24-6.19-7.66-13.12-10.9c-4.02-1.88-10.44-2.96-15.25-1.82
			c-4.35,1.03-9.43,1.96-13.02,3.82C61.09,38.91,58.33,40.28,56.56,44.19z"/>
		<path class="st25" d="M56.89,44.4c-3.56,7.88-0.5,27.96,2.6,41.79c1.68,7.5-0.11,16.7-2.45,18.83c-0.66,0.65-1.96,1.29-3.53,1.85
			c-4.65,1.77-19.61,9.16-20.72,19.21c-0.05,0.52-0.08,1.95-0.08,2.5v8.12c0,0,32.48,0,47.06,0c15.09,0,53.73,0,53.73,0l-1.3-10.02
			c0-1.18-1.1-7.37-1.74-7.94c-3.44-7.97-11.15-9.17-14.62-10.68c-1.59-0.64-2.84-1.82-3.87-3.36c-4.12-6.22-2.23-19.95-1.66-22
			c4.02-14.28,2.85-26.84-3.46-36.61c-2.65-4.11-5.97-7.51-12.55-10.78c-3.91-1.95-10.05-3.15-14.72-1.97
			c-4.27,1.07-9.55,1.85-13.24,3.65C61.54,39.32,58.7,40.4,56.89,44.4z"/>
		<path class="st26" d="M57.22,44.61c-3.62,8.06-0.32,28.05,3.17,41.69c1.83,7.13-0.13,16.47-2.54,18.82
			c-0.69,0.71-1.96,1.38-3.49,1.92c-4.47,1.7-19.89,9.29-20.98,19.03c-0.05,0.49-0.08,1.99-0.08,2.51v8.13c0,0,31.96,0,46.45,0
			c15.01,0,53.1,0,53.1,0l-1.3-10.02c0-1.33-1.11-7.26-1.83-7.91c-3.59-7.79-11.57-8.79-14.9-10.23c-1.56-0.62-2.76-1.85-3.74-3.46
			c-3.87-6.32-2.05-20.05-1.43-22.04c4.4-14.09,3.13-26.55-3.05-36.28c-2.53-3.97-5.75-7.37-11.98-10.67
			c-3.79-2.01-9.65-3.33-14.18-2.13c-4.19,1.11-9.67,1.75-13.46,3.48C61.99,39.73,59.06,40.52,57.22,44.61z"/>
		<path class="st27" d="M57.55,44.82c-3.68,8.23-0.17,28.13,3.74,41.59c1.96,6.77-0.14,16.25-2.63,18.81
			c-0.71,0.78-1.97,1.47-3.45,1.99c-4.28,1.63-20.18,9.42-21.24,18.86c-0.05,0.45-0.07,2.03-0.07,2.51v8.14c0,0,31.43,0,45.85,0
			c14.93,0,52.46,0,52.46,0l-1.3-10.02c0-1.48-1.12-7.15-1.91-7.88c-3.74-7.6-11.99-8.41-15.18-9.78c-1.52-0.59-2.67-1.88-3.62-3.57
			c-3.62-6.42-1.87-20.14-1.2-22.08c4.8-13.9,3.42-26.26-2.64-35.94c-2.4-3.84-5.52-7.23-11.41-10.56
			c-3.68-2.08-9.26-3.51-13.65-2.29c-4.1,1.15-9.79,1.64-13.68,3.31C62.44,40.14,59.42,40.64,57.55,44.82z"/>
		<path class="st28" d="M57.89,45.02c-3.75,8.4-0.02,28.2,4.31,41.49c2.09,6.41-0.16,16.03-2.71,18.8
			c-0.73,0.84-1.97,1.56-3.41,2.06c-4.09,1.55-20.46,9.56-21.51,18.68c-0.04,0.42-0.07,2.07-0.07,2.51v8.15c0,0,30.91,0,45.25,0
			c14.85,0,51.83,0,51.83,0l-1.31-10.02c0-1.62-1.12-7.05-2-7.84c-3.89-7.41-12.41-8.03-15.46-9.34c-1.49-0.57-2.58-1.9-3.5-3.67
			c-3.38-6.51-1.69-20.24-0.97-22.12c5.2-13.71,3.69-25.98-2.22-35.61c-2.28-3.71-5.3-7.1-10.83-10.44
			c-3.56-2.15-8.87-3.69-13.12-2.44c-4.02,1.18-9.91,1.54-13.9,3.14C62.89,40.54,59.79,40.76,57.89,45.02z"/>
		<path class="st29" d="M58.22,45.23c-3.81,8.57,0.1,28.28,4.88,41.38c2.21,6.05-0.17,15.81-2.8,18.79
			c-0.76,0.9-1.98,1.66-3.37,2.13c-3.9,1.48-20.75,9.69-21.77,18.5c-0.04,0.38-0.06,2.11-0.06,2.51v8.16c0,0,30.39,0,44.65,0
			c14.77,0,51.19,0,51.19,0l-1.31-10.02c0-1.77-1.13-6.94-2.08-7.81c-4.03-7.22-12.83-7.65-15.75-8.89
			c-1.45-0.54-2.5-1.93-3.37-3.77c-3.15-6.59-1.5-20.33-0.75-22.16c5.6-13.52,3.97-25.69-1.81-35.27
			c-2.15-3.57-5.07-6.97-10.26-10.33c-3.44-2.23-8.48-3.87-12.58-2.6c-3.93,1.22-10.03,1.43-14.13,2.97
			C63.33,40.94,60.15,40.88,58.22,45.23z"/>
		<path class="st30" d="M58.55,45.44c-3.87,8.75,0.2,28.36,5.45,41.28c2.31,5.69-0.19,15.58-2.89,18.78
			c-0.78,0.96-1.98,1.75-3.33,2.2c-3.72,1.41-21.04,9.82-22.03,18.33c-0.04,0.35-0.06,2.15-0.06,2.52v8.17c0,0,29.87,0,44.05,0
			c14.69,0,50.56,0,50.56,0l-1.31-10.02c0-1.92-1.13-6.84-2.17-7.78c-4.18-7.03-13.25-7.27-16.03-8.45
			c-1.42-0.52-2.41-1.95-3.25-3.87c-2.92-6.68-1.32-20.42-0.52-22.2c6.02-13.33,4.25-25.39-1.39-34.94
			c-2.03-3.43-4.84-6.85-9.69-10.21c-3.32-2.3-8.08-4.05-12.05-2.75c-3.85,1.26-10.15,1.32-14.35,2.8
			C63.78,41.34,60.51,41,58.55,45.44z"/>
		<path class="st31" d="M58.88,45.65c-3.93,8.92,0.28,28.45,6.02,41.18c2.41,5.33-0.2,15.36-2.98,18.77
			c-0.8,1.02-1.99,1.84-3.29,2.27c-3.53,1.34-21.32,9.95-22.29,18.15c-0.03,0.31-0.05,2.19-0.05,2.52v8.17c0,0,29.35,0,43.45,0
			c14.6,0,49.92,0,49.92,0l-1.31-10.02c0-2.07-1.14-6.73-2.25-7.74c-4.33-6.85-13.67-6.89-16.31-8c-1.38-0.5-2.33-1.97-3.13-3.97
			c-2.7-6.76-1.13-20.52-0.29-22.24c6.44-13.13,4.52-25.1-0.98-34.6c-1.91-3.3-4.61-6.74-9.12-10.1c-3.2-2.39-7.69-4.23-11.52-2.91
			c-3.77,1.3-10.27,1.21-14.57,2.63C64.23,41.74,60.88,41.12,58.88,45.65z"/>
		<path class="st32" d="M59.21,45.86c-4,9.09,0.34,28.55,6.6,41.07c2.49,4.98-0.22,15.14-3.06,18.76c-0.83,1.08-2,1.93-3.25,2.34
			c-3.34,1.27-21.61,10.08-22.55,17.97c-0.03,0.28-0.04,2.23-0.04,2.52v8.18c0,0,28.82,0,42.85,0c14.52,0,49.29,0,49.29,0
			l-1.31-10.02c0-2.22-1.14-6.62-2.34-7.71c-4.48-6.66-14.08-6.51-16.59-7.55c-1.34-0.47-2.25-2-3-4.07
			c-2.48-6.85-0.95-20.61-0.06-22.27c6.86-12.93,4.79-24.8-0.56-34.27c-1.79-3.16-4.38-6.63-8.55-9.98
			c-3.08-2.47-7.3-4.41-10.98-3.06c-3.68,1.34-10.39,1.1-14.79,2.46C64.67,42.14,61.24,41.24,59.21,45.86z"/>
		<path class="st33" d="M59.54,46.07c-4.06,9.26,0.37,28.66,7.17,40.97c2.56,4.64-0.23,14.91-3.15,18.75
			c-0.85,1.14-2,2.02-3.21,2.41c-3.16,1.2-21.9,10.21-22.81,17.8c-0.03,0.24-0.04,2.27-0.04,2.53v8.19c0,0,28.3,0,42.25,0
			c14.44,0,48.65,0,48.65,0l-1.31-10.02c0-2.36-1.15-6.52-2.42-7.68c-4.63-6.47-14.5-6.13-16.87-7.11
			c-1.31-0.45-2.18-2.02-2.88-4.17c-2.27-6.93-0.76-20.7,0.16-22.31c7.29-12.73,5.05-24.51-0.15-33.93
			c-1.67-3.02-4.13-6.53-7.98-9.87c-2.95-2.56-6.9-4.59-10.45-3.22c-3.6,1.39-10.51,0.99-15.01,2.29
			C65.12,42.54,61.61,41.36,59.54,46.07z"/>
		<path class="st34" d="M59.88,46.28c-4.12,9.44,0.37,28.8,7.74,40.87c2.62,4.3-0.25,14.69-3.24,18.74
			c-0.87,1.2-2.01,2.11-3.17,2.48c-2.97,1.12-22.18,10.35-23.07,17.62c-0.02,0.21-0.03,2.31-0.03,2.53v8.2c0,0,27.78,0,41.65,0
			c14.36,0,48.02,0,48.02,0l-1.31-10.03c0-2.51-1.16-6.41-2.51-7.64c-4.78-6.28-14.92-5.75-17.15-6.66
			c-1.27-0.42-2.1-2.04-2.76-4.27c-2.07-7.01-0.57-20.79,0.39-22.35c7.73-12.51,5.31-24.21,0.26-33.59
			c-1.55-2.88-3.89-6.44-7.4-9.75c-2.82-2.66-6.51-4.77-9.91-3.38c-3.51,1.43-10.63,0.87-15.23,2.12
			C65.57,42.93,61.97,41.48,59.88,46.28z"/>
		<path class="st35" d="M60.21,46.48c-4.18,9.61,0.34,28.96,8.31,40.77c2.68,3.97-0.26,14.47-3.33,18.73
			c-0.9,1.26-2.01,2.2-3.13,2.55c-2.78,1.05-22.47,10.48-23.33,17.44c-0.02,0.17-0.03,2.35-0.03,2.53v8.21c0,0,27.26,0,41.05,0
			c14.28,0,47.39,0,47.39,0l-1.32-10.03c0-2.66-1.16-6.31-2.59-7.61c-4.92-6.09-15.34-5.36-17.43-6.22
			c-1.24-0.4-2.03-2.06-2.64-4.37c-1.87-7.1-0.38-20.88,0.62-22.39c8.18-12.3,5.57-23.9,0.68-33.26c-1.43-2.74-3.63-6.35-6.83-9.64
			c-2.68-2.76-6.11-4.94-9.38-3.53c-3.42,1.48-10.75,0.76-15.45,1.95C66.01,43.33,62.33,41.6,60.21,46.48z"/>
		<path class="st36" d="M60.54,46.69c-4.24,9.78,0.28,29.16,8.88,40.66c2.73,3.65-0.28,14.25-3.41,18.72
			c-0.92,1.33-2.02,2.29-3.09,2.62c-2.6,0.98-22.75,10.61-23.59,17.27c-0.01,0.14-0.02,2.39-0.02,2.53v8.22c0,0,26.73,0,40.45,0
			c14.2,0,46.75,0,46.75,0l-1.32-10.03c0-2.81-1.17-6.2-2.68-7.57c-5.07-5.91-15.76-4.98-17.71-5.77c-1.2-0.38-1.96-2.09-2.51-4.47
			c-1.67-7.19-0.19-20.97,0.85-22.43c8.63-12.07,5.81-23.6,1.09-32.92c-1.32-2.6-3.37-6.26-6.26-9.52
			c-2.54-2.87-5.72-5.12-8.85-3.69c-3.34,1.52-10.87,0.65-15.67,1.78C66.46,43.72,62.7,41.72,60.54,46.69z"/>
		<path class="st37" d="M60.87,46.9c-4.31,9.95,0.18,29.4,9.45,40.56c2.77,3.34-0.29,14.02-3.5,18.7c-0.94,1.39-2.02,2.38-3.05,2.69
			c-2.41,0.91-23.04,10.74-23.86,17.09c-0.01,0.1-0.02,2.42-0.02,2.54v8.23c0,0,26.21,0,39.85,0c14.12,0,46.12,0,46.12,0
			l-1.32-10.03c0-2.95-1.17-6.09-2.77-7.54c-5.22-5.72-16.18-4.6-17.99-5.32c-1.17-0.35-1.89-2.11-2.39-4.57
			c-1.48-7.28,0-21.06,1.08-22.47c9.09-11.84,6.06-23.29,1.51-32.59c-1.2-2.46-3.1-6.18-5.69-9.41c-2.39-2.98-5.32-5.29-8.31-3.84
			c-3.25,1.57-10.99,0.53-15.89,1.61C66.91,44.11,63.06,41.84,60.87,46.9z"/>
		<path class="st38" d="M61.2,47.11c-4.37,10.13,0.06,29.69,10.02,40.46c2.82,3.04-0.31,13.8-3.59,18.69
			c-0.97,1.45-2.03,2.47-3.01,2.76c-2.22,0.84-23.33,10.87-24.12,16.91c-0.01,0.07-0.01,2.46-0.01,2.54v8.24c0,0,25.69,0,39.25,0
			c14.04,0,45.48,0,45.48,0l-1.32-10.03c0-3.1-1.18-5.99-2.85-7.51c-5.37-5.53-16.6-4.22-18.27-4.88c-1.13-0.33-1.82-2.13-2.27-4.67
			c-1.29-7.37,0.19-21.15,1.3-22.51c9.55-11.6,6.29-22.98,1.92-32.25c-1.09-2.32-2.82-6.1-5.12-9.29c-2.22-3.09-4.92-5.46-7.78-4
			c-3.16,1.62-11.11,0.42-16.12,1.43C67.35,44.51,63.42,41.96,61.2,47.11z"/>
		<path class="st39" d="M61.54,47.32c-4.43,10.3-0.1,30.05,10.6,40.36c2.86,2.76-0.32,13.58-3.68,18.68
			c-0.99,1.51-2.03,2.57-2.97,2.83c-2.04,0.77-23.61,11.01-24.38,16.74c0,0.03-0.01,2.5-0.01,2.54v8.25c0,0,25.17,0,38.65,0
			c13.96,0,44.85,0,44.85,0l-1.32-10.03c0-3.25-1.19-5.88-2.94-7.47c-5.52-5.34-17.02-3.84-18.56-4.43c-1.1-0.3-1.76-2.16-2.14-4.77
			c-1.11-7.46,0.38-21.24,1.53-22.55c10.01-11.35,6.51-22.66,2.33-31.92c-0.98-2.18-2.53-6.02-4.55-9.18
			c-2.04-3.21-4.52-5.63-7.25-4.16c-3.07,1.67-11.23,0.29-16.34,1.26C67.8,44.88,63.79,42.08,61.54,47.32z"/>
		<path class="st40" d="M100.79,115.26c-4.04-1.06-1.88-25.75-0.26-27.46c10.48-11.09,6.71-22.34,2.75-31.58
			c-1.8-4.2-5.66-16.27-10.69-13.38c-2.98,1.72-11.35,0.19-16.56,1.09c-7.78,1.35-11.87-1.73-14.16,3.59
			C57.38,58,61.6,78,73.04,87.78c3.77,3.23-2.8,20.51-6.69,21.57c-1.85,0.7-23.9,11.14-24.64,16.56v10.8c0,0,24.65,0,38.05,0
			c13.88,0,44.21,0,44.21,0l-1.32-10.03C122.64,112.77,102.64,115.95,100.79,115.26z"/>
	</g>
	<g>
		
			<radialGradient id="SVGID_00000155135474301798578350000004084143582178692027_" cx="82.468" cy="92.9168" r="23.7243" gradientUnits="userSpaceOnUse">
			<stop  offset="0" style="stop-color:#FEC36F"/>
			<stop  offset="0.7446" style="stop-color:#FDB054"/>
			<stop  offset="0.993" style="stop-color:#FDA94A"/>
		</radialGradient>
		<path style="fill:url(#SVGID_00000155135474301798578350000004084143582178692027_);" d="M106,75.95H82.47H58.94
			c0,6.9,0.88,23.57-5.41,33.94h28.94h28.94C105.12,99.51,106,82.84,106,75.95z"/>
		<path class="st208" d="M104.8,75.95H82.47H60.14c0,6.9,0.83,23.57-5.14,33.94h27.47h27.46C103.96,99.51,104.8,82.84,104.8,75.95z"
			/>
		
			<linearGradient id="SVGID_00000040534265568194850350000011230287797682972071_" gradientUnits="userSpaceOnUse" x1="69.7795" y1="111.8712" x2="96.8255" y2="111.8712">
			<stop  offset="0" style="stop-color:#FFAFA3"/>
			<stop  offset="0.1516" style="stop-color:#FFC0B3"/>
			<stop  offset="0.3178" style="stop-color:#FFCBBE"/>
			<stop  offset="0.5" style="stop-color:#FFCFC1"/>
			<stop  offset="0.6716" style="stop-color:#FFCABC"/>
			<stop  offset="0.8724" style="stop-color:#FFBCAF"/>
			<stop  offset="1" style="stop-color:#FFAFA3"/>
		</linearGradient>
		<path style="fill:url(#SVGID_00000040534265568194850350000011230287797682972071_);" d="M106.31,108.17
			c-4.91-0.87-6.8-1.48-9.68-3.91c-2.3-1.95-2.68-11.4-2.64-13.26c-0.58,0.18-11.34,1.3-11.52,1.3c-0.18,0-10.94-1.13-11.52-1.3
			c0.04,1.86-0.34,11.31-2.64,13.26c-2.88,2.43-4.77,3.03-9.68,3.91c-3.2,0.57-5.88,1.23-9.4,1.43
			c8.04,4.83,20.27,23.14,33.25,23.14c12.97,0,25.21-18.31,33.25-23.14C112.19,109.4,109.51,108.74,106.31,108.17z"/>
		
			<linearGradient id="SVGID_00000006680291710256728250000005524984846874712252_" gradientUnits="userSpaceOnUse" x1="82.7422" y1="136.7127" x2="82.7422" y2="104.2631">
			<stop  offset="0" style="stop-color:#074B92"/>
			<stop  offset="0.3625" style="stop-color:#1763A6"/>
			<stop  offset="1" style="stop-color:#3895D0"/>
		</linearGradient>
		<path style="fill:url(#SVGID_00000006680291710256728250000005524984846874712252_);" d="M121.19,110.85
			c-9.18-3.67-17.42-2.94-24.56-6.59c-4.36,4.55-13.89,22.84-13.89,22.84s-10.07-18.3-14.43-22.84c-7.14,3.65-14.83,2.93-24.01,6.59
			c-10.36,4.14-10.6,16.15-10.6,25.86h49.05h49.05C131.79,127.01,131.55,114.99,121.19,110.85z"/>
		
			<radialGradient id="SVGID_00000122694791658115580230000008385331593502876802_" cx="82.4688" cy="72.9992" r="24.3678" gradientUnits="userSpaceOnUse">
			<stop  offset="0" style="stop-color:#FFCFC1"/>
			<stop  offset="0.4568" style="stop-color:#FFCDBF"/>
			<stop  offset="0.7136" style="stop-color:#FFC4B7"/>
			<stop  offset="0.9201" style="stop-color:#FFB7AA"/>
			<stop  offset="1" style="stop-color:#FFAFA3"/>
		</radialGradient>
		<path style="fill:url(#SVGID_00000122694791658115580230000008385331593502876802_);" d="M58.94,77.66
			c0-18.15,0.07-26.59,0.07-26.59c0-4.32,46.99-4.33,46.99-0.02c0,0.4,0,26.87,0,26.61c0,7.7-7.71,14.11-14.58,17.62
			c-0.02,0-0.05,0-0.07,0.01c-2.29,1.16-6.37,2.89-8.88,2.89c-2.47,0-6.53-1.7-8.88-2.89c-0.02-0.01-0.04-0.01-0.06-0.02
			C66.64,91.76,58.94,85.36,58.94,77.66z"/>
		<g>
			<path class="st212" d="M59.01,51.07c0,0-0.03,3.04-0.05,10.6c2.35,1.28,10.2,3.41,18.55,2.82l-1.82-9.56l5.34,9.7
				c7.39,0.09,18.32-1.67,24.97-2.91c0-5.73,0-10.48,0-10.66C106,46.74,59,46.74,59.01,51.07z"/>
		</g>
		
			<radialGradient id="SVGID_00000111910787406554387380000006845262312446126240_" cx="81.4642" cy="42.9769" r="24.1762" gradientUnits="userSpaceOnUse">
			<stop  offset="0" style="stop-color:#FEC36F"/>
			<stop  offset="0.7446" style="stop-color:#FDB054"/>
			<stop  offset="0.993" style="stop-color:#FDA94A"/>
		</radialGradient>
		<path style="fill:url(#SVGID_00000111910787406554387380000006845262312446126240_);" d="M61.82,43.14
			c4-4.71,12.59-7.64,19.98-7.64c7.11,0,16.3,1.92,20.89,7.33c3.07,3.62,5.14,8.33,3.31,18.47c-6.65,1.24-17.08,2.41-24.47,2.32
			c0,0-5.7-9.88-6.09-9.77c-0.39,0.11,1.11,9.91,1.11,9.91c-8.37,0.6-15.28-1.06-17.61-2.34C57.25,52.9,58.75,46.76,61.82,43.14z"/>
		<path class="st214" d="M107.45,48.91c-0.59-3.72-1.91-7.48-4.38-10.52c-2.43-3.08-5.94-5.17-9.59-6.37
			c-3.5-1.15-7.13-1.56-10.74-1.67h-0.55c-3.6,0.11-7.24,0.52-10.73,1.67c-3.65,1.19-7.16,3.28-9.59,6.37
			c-2.47,3.04-3.79,6.8-4.38,10.52c-0.3,1.87-0.44,3.75-0.46,5.63c-0.03,1.88,0.14,3.7,0.2,5.56h0.86
			c0.23-3.71,0.13-7.39,0.86-10.93c0.68-3.53,2.04-6.95,4.34-9.59c2.27-2.68,5.44-4.44,8.82-5.43c3.32-0.97,6.84-1.25,10.35-1.23
			c3.51-0.02,7.03,0.25,10.35,1.23c3.38,0.99,6.56,2.75,8.82,5.43c2.3,2.65,3.66,6.06,4.34,9.59c0.73,3.54,0.63,7.22,0.86,10.93
			h0.86c0.06-1.86,0.23-3.68,0.2-5.56C107.88,52.67,107.75,50.78,107.45,48.91z"/>
		
			<linearGradient id="SVGID_00000056412824872962282150000001577958714922983317_" gradientUnits="userSpaceOnUse" x1="57.0259" y1="45.2292" x2="103.5716" y2="45.2292">
			<stop  offset="0" style="stop-color:#4B5F70"/>
			<stop  offset="0.3033" style="stop-color:#495C6D"/>
			<stop  offset="0.5336" style="stop-color:#425463"/>
			<stop  offset="0.7399" style="stop-color:#374553"/>
			<stop  offset="0.9311" style="stop-color:#27313C"/>
			<stop  offset="1" style="stop-color:#202832"/>
		</linearGradient>
		<path style="fill:url(#SVGID_00000056412824872962282150000001577958714922983317_);" d="M57.52,55.25
			c0.02-1.85,0.16-3.71,0.46-5.56c0.59-3.68,1.92-7.39,4.4-10.39c2.44-3.05,5.97-5.11,9.63-6.29c3.51-1.13,7.17-1.54,10.79-1.65
			h0.55c3.62,0.11,7.27,0.52,10.78,1.65c3.57,1.15,7,3.14,9.43,6.05c-0.17-0.23-0.33-0.46-0.5-0.68c-2.43-3.08-5.94-5.17-9.59-6.37
			c-3.5-1.15-7.13-1.56-10.74-1.67h-0.55c-3.6,0.11-7.24,0.52-10.73,1.67c-3.65,1.19-7.16,3.28-9.59,6.37
			c-2.47,3.04-3.79,6.8-4.38,10.52c-0.3,1.87-0.44,3.75-0.46,5.63c-0.03,1.88,0.14,3.7,0.2,5.56h0.46
			C57.62,58.49,57.49,56.89,57.52,55.25z"/>
		<g>
			<path class="st214" d="M86.31,90.12v-0.87c8.54,0,18.64-4.93,20.54-14.06l0.85,0.18C105.71,84.95,95.19,90.12,86.31,90.12z"/>
		</g>
		
			<radialGradient id="SVGID_00000125575188861761899100000005197611074421837489_" cx="84.0887" cy="89.0879" r="3.0084" gradientUnits="userSpaceOnUse">
			<stop  offset="0" style="stop-color:#344350"/>
			<stop  offset="1" style="stop-color:#171D26"/>
		</radialGradient>
		<path style="fill:url(#SVGID_00000125575188861761899100000005197611074421837489_);" d="M86.95,91.22h-3.56
			c-0.85,0-1.53-0.69-1.53-1.53l0,0c0-0.85,0.69-1.53,1.53-1.53h3.56c0.85,0,1.53,0.69,1.53,1.53l0,0
			C88.48,90.53,87.79,91.22,86.95,91.22z"/>
		
			<radialGradient id="SVGID_00000163065373543687548110000010565850535941125289_" cx="184.7876" cy="65.0045" r="8.8572" gradientTransform="matrix(1.1343 0 0 1 -155.7486 0)" gradientUnits="userSpaceOnUse">
			<stop  offset="0" style="stop-color:#344350"/>
			<stop  offset="1" style="stop-color:#171D26"/>
		</radialGradient>
		<path style="fill:url(#SVGID_00000163065373543687548110000010565850535941125289_);" d="M58.3,77.7L58.3,77.7
			c0.35,0,0.64-0.29,0.64-0.64V60.3c0-0.35-0.29-0.64-0.64-0.64h0c-3.77,0-6.82,3.05-6.82,6.82v4.4
			C51.48,74.65,54.54,77.7,58.3,77.7z"/>
		
			<linearGradient id="SVGID_00000161613922579009862810000010746836630361568140_" gradientUnits="userSpaceOnUse" x1="57.9361" y1="77.6988" x2="57.9361" y2="59.6655">
			<stop  offset="0" style="stop-color:#000000"/>
			<stop  offset="0.3178" style="stop-color:#1E272E"/>
			<stop  offset="0.6058" style="stop-color:#354450"/>
			<stop  offset="0.843" style="stop-color:#435664"/>
			<stop  offset="1" style="stop-color:#485C6C"/>
		</linearGradient>
		<path style="fill:url(#SVGID_00000161613922579009862810000010746836630361568140_);" d="M58.36,59.67h-0.72
			c-0.24,0-0.47,0.04-0.71,0.06v17.91c0.24,0.02,0.47,0.06,0.71,0.06h0.72c0.32,0,0.58-0.23,0.58-0.51V60.17
			C58.94,59.89,58.68,59.67,58.36,59.67z"/>
		
			<radialGradient id="SVGID_00000075840993321670680560000007002377966104214170_" cx="2103.5857" cy="65.0045" r="8.8569" gradientTransform="matrix(-1.1343 0 0 1 2497.1777 0)" gradientUnits="userSpaceOnUse">
			<stop  offset="0" style="stop-color:#344350"/>
			<stop  offset="1" style="stop-color:#171D26"/>
		</radialGradient>
		<path style="fill:url(#SVGID_00000075840993321670680560000007002377966104214170_);" d="M106.63,77.7L106.63,77.7
			c-0.35,0-0.64-0.29-0.64-0.64V60.3c0-0.35,0.29-0.64,0.64-0.64h0c3.77,0,6.82,3.05,6.82,6.82v4.4
			C113.45,74.65,110.4,77.7,106.63,77.7z"/>
		
			<linearGradient id="SVGID_00000034774034690966186680000010140795327676716938_" gradientUnits="userSpaceOnUse" x1="2234.4292" y1="77.6988" x2="2234.4292" y2="59.6655" gradientTransform="matrix(-1 0 0 1 2341.4282 0)">
			<stop  offset="0" style="stop-color:#000000"/>
			<stop  offset="0.3178" style="stop-color:#1E272E"/>
			<stop  offset="0.6058" style="stop-color:#354450"/>
			<stop  offset="0.843" style="stop-color:#435664"/>
			<stop  offset="1" style="stop-color:#485C6C"/>
		</linearGradient>
		<path style="fill:url(#SVGID_00000034774034690966186680000010140795327676716938_);" d="M106.57,59.67h0.72
			c0.24,0,0.47,0.04,0.71,0.06v17.91c-0.24,0.02-0.47,0.06-0.71,0.06h-0.72c-0.32,0-0.58-0.23-0.58-0.51V60.17
			C105.99,59.89,106.25,59.67,106.57,59.67z"/>
	</g>
</g>
</svg>
