<svg xmlns="http://www.w3.org/2000/svg" xmlns:xlink="http://www.w3.org/1999/xlink" viewBox="0 0 135.86 213.16"><defs><style>.cls-1{opacity:0.6;fill:url(#radial-gradient);}.cls-2{fill:url(#linear-gradient);}.cls-3{fill:url(#linear-gradient-2);}.cls-4{opacity:0.4;fill:url(#radial-gradient-2);}.cls-5{fill:url(#radial-gradient-3);}.cls-6{fill:url(#linear-gradient-3);}.cls-7{fill:#333;}.cls-8{fill:#0e4681;}</style><radialGradient id="radial-gradient" cx="-430.28" cy="-679.38" r="84.3" gradientTransform="translate(359.02 271.57) scale(0.68 0.1)" gradientUnits="userSpaceOnUse"><stop offset="0"/><stop offset="0.14" stop-opacity="0.63"/><stop offset="1" stop-opacity="0"/></radialGradient><linearGradient id="linear-gradient" x1="11.02" y1="122.3" x2="94.89" y2="88.26" gradientUnits="userSpaceOnUse"><stop offset="0.02" stop-color="#303030"/><stop offset="0.09" stop-color="#3b3b3b"/><stop offset="0.52" stop-color="#727272"/><stop offset="0.83" stop-color="#949494"/><stop offset="1" stop-color="#a1a1a1"/></linearGradient><linearGradient id="linear-gradient-2" x1="9.11" y1="135.75" x2="105.72" y2="27.01" gradientUnits="userSpaceOnUse"><stop offset="0.29" stop-color="#d1d1d1"/><stop offset="0.67" stop-color="#787878"/><stop offset="1" stop-color="#292929"/></linearGradient><radialGradient id="radial-gradient-2" cx="62.46" cy="92.92" r="38.55" gradientTransform="translate(0 -217.18) scale(1 3.34)" gradientUnits="userSpaceOnUse"><stop offset="0" stop-color="#fff"/><stop offset="1" stop-color="#fff" stop-opacity="0"/></radialGradient><radialGradient id="radial-gradient-3" cx="82.61" cy="45.75" r="94.56" gradientTransform="translate(69.07 -27.66) rotate(45)" gradientUnits="userSpaceOnUse"><stop offset="0.03" stop-color="#f7f7f7"/><stop offset="0.44" stop-color="#f5f5f5"/><stop offset="0.58" stop-color="#eee"/><stop offset="0.68" stop-color="#e3e3e3"/><stop offset="0.77" stop-color="#d2d2d2"/><stop offset="0.84" stop-color="#bcbcbc"/><stop offset="0.9" stop-color="#a1a1a1"/><stop offset="0.96" stop-color="#828282"/><stop offset="0.96" stop-color="gray"/></radialGradient><linearGradient id="linear-gradient-3" y1="101.9" x2="135.86" y2="101.9" gradientUnits="userSpaceOnUse"><stop offset="0" stop-color="#333958"/><stop offset="0.48" stop-color="#3f486d"/><stop offset="0.49" stop-color="#3f486d"/><stop offset="1" stop-color="#3f486d"/></linearGradient></defs><title>Asset 3</title><g id="Layer_2" data-name="Layer 2"><g id="Layer_1-2" data-name="Layer 1"><ellipse class="cls-1" cx="67.93" cy="203.63" rx="58.53" ry="9.53"/><path class="cls-2" d="M135.86,66.38h0A67.93,67.93,0,0,0,0,66.38H0c0,.18,0,.36,0,.54s0,.67,0,1A67.92,67.92,0,0,0,3.6,89.81c14,49.41,64.33,114,64.33,114s50.29-64.58,64.33-114a67.92,67.92,0,0,0,3.6-21.88c0-.34,0-.68,0-1S135.86,66.56,135.86,66.38ZM67.93,119.32a49.78,49.78,0,1,1,49.78-49.78A49.78,49.78,0,0,1,67.93,119.32Z"/><circle class="cls-3" cx="67.93" cy="69.54" r="54.92"/><path class="cls-4" d="M135.86,66.38h0A67.93,67.93,0,0,0,0,66.38H0c0,.18,0,.36,0,.54s0,.67,0,1A67.92,67.92,0,0,0,3.6,89.81c14,49.41,64.33,114,64.33,114s50.29-64.58,64.33-114a67.92,67.92,0,0,0,3.6-21.88c0-.34,0-.68,0-1S135.86,66.56,135.86,66.38ZM67.93,119.32a49.78,49.78,0,1,1,49.78-49.78A49.78,49.78,0,0,1,67.93,119.32Z"/><circle class="cls-5" cx="67.93" cy="69.54" r="49.81" transform="translate(-29.28 68.4) rotate(-45)"/><path class="cls-6" d="M135.86,66.38h0A67.93,67.93,0,0,0,0,66.38H0c0,.18,0,.36,0,.54s0,.67,0,1A67.92,67.92,0,0,0,3.6,89.81c14,49.41,64.33,114,64.33,114s50.29-64.58,64.33-114a67.92,67.92,0,0,0,3.6-21.88c0-.34,0-.68,0-1S135.86,66.56,135.86,66.38ZM67.93,119.32a49.78,49.78,0,1,1,49.78-49.78A49.78,49.78,0,0,1,67.93,119.32Z"/><path class="cls-7" d="M33.27,83.69A2,2,0,0,1,34.72,83a2,2,0,0,1,2,2v3.35H34.4v-.82h1.43V85a1.1,1.1,0,0,0-2.19-.2L33,88.38H32l.71-3.91-.88-.55.52-.78Zm4.59,1.2h-.52l.55-2.43h1Zm1.33,0h-.52l.54-2.43h1Zm5.61-1.75a.5.5,0,0,1,.51.64l-.66,2.62A1.9,1.9,0,0,1,43,88.09l-2.19.57-.21-.82L42,87.45,41.08,84h-.59v-.81h1a.47.47,0,0,1,.51.36l1,3.71.22-.07c.33-.09.39-.27.48-.64L44.28,84h-.67v-.81Zm1.05,5.38v-.86l2.76-.26V84H45.89v-.81h3.22a.45.45,0,0,1,.45.45V87.3l.67,0v.84Zm11.23-5.38a.46.46,0,0,1,.46.45v4.79h-1V84H54.45v4.43h-1V84h-.69v-.81h4.29Zm2.05,5.24V84h-.71v-.81h1.22a.45.45,0,0,1,.45.45v4.79Zm6.26-5.24a.5.5,0,0,1,.51.64l-.69,2.81c-.24,1-.47,1.37-1.51,1.59l-1.55.3L61.36,84h-.5v-.81h.91a.42.42,0,0,1,.47.36L63,87.42l.7-.16a.66.66,0,0,0,.59-.58L64.9,84H63.53v-.81Zm1.88,2.72V84h-.93v-.81h1.48a.42.42,0,0,1,.42.43v2.29Zm1.67,2.66v-.86l2.77-.26V84H69v-.81h3.22a.45.45,0,0,1,.45.45V87.3l.67,0v.84Zm8.11-5.38a.52.52,0,0,1,.53.53,1.08,1.08,0,0,1,0,.19s-1,3.54-1.24,4.52h-1L76.51,84h-3V81.78h1v1.36Zm7.27,5.24V84H82.05v4.43H80v-.82h1.07V84h-.76v-.81h4.46a.45.45,0,0,1,.46.45v4.79Zm2.54,0V84h-.7v-.81h1.21a.45.45,0,0,1,.45.45v4.79Zm1.74,0v-.82h1.33V84H89v-.81h1.41a.45.45,0,0,1,.44.45v4.79Zm6-4.43H91.72v-.81h3.34a.45.45,0,0,1,.45.45v4.14a.47.47,0,0,1-.39.45l-3.44.34v-.86l2.87-.28Zm2.56,4.43V84h-.7v-.81h1.22a.45.45,0,0,1,.44.45v4.79Zm6.37-1.64a1.85,1.85,0,0,1-3.69,0L99.44,84h-.59v-.81H104Zm-2.71.06c.07.51.34.85.85.85s.79-.33.86-.85l.41-2.85h-2.45Z"/><path class="cls-7" d="M102.33,60c.17-1.06.38-4.25.38-4.25H82.29V60h2.23l1.24,10a7.26,7.26,0,0,0,7.41,6.48,7.34,7.34,0,0,0,7.48-6.48Zm-11.6,9.78L89.53,60h7.62l-1.41,9.68A2.4,2.4,0,0,1,93.17,72a2.46,2.46,0,0,1-2.44-2.3M69,55.71V50.43H63.84V60H75.5L70.73,76.09h5.35l5-16.81a2.75,2.75,0,0,0-2.68-3.57ZM62,59a2.55,2.55,0,0,0-2.58-3.29H54.43V60h2.34l-1.92,8.3a2.86,2.86,0,0,1-2,2.27l-.41.14L49.29,57.56A2.16,2.16,0,0,0,47,55.71H42.7V60H45l2.84,12.11-4.49,1.31,1,4.28c1.68-.48,6.86-2,8.09-2.29,4.16-1.07,6.56-3.33,7.38-7Z"/><path class="cls-8" d="M36.34,77.73a4,4,0,1,0-4-4,4,4,0,0,0,4,4"/></g></g></svg>