<?xml version="1.0" encoding="utf-8"?>
<!-- Generator: Adobe Illustrator 27.1.0, SVG Export Plug-In . SVG Version: 6.00 Build 0)  -->
<svg version="1.1" id="Layer_1" xmlns="http://www.w3.org/2000/svg" xmlns:xlink="http://www.w3.org/1999/xlink" x="0px" y="0px"
	 viewBox="0 0 245.11 297.19" style="enable-background:new 0 0 245.11 297.19;" xml:space="preserve">
<style type="text/css">
	.st0{fill:url(#SVGID_00000169556287997879354520000001931644543228470958_);}
	.st1{fill:#F1F5F8;}
	.st2{opacity:0.52;}
	.st3{fill:#FFFFFF;}
	.st4{opacity:0.58;fill:#F3F4F5;}
	.st5{display:none;}
	.st6{display:inline;}
	.st7{fill:#333333;}
	.st8{fill:#0E4681;}
	.st9{fill:url(#SVGID_00000047059024429514560910000002704934881392794287_);}
	.st10{fill:url(#SVGID_00000122705116130052788550000009636817148192138626_);}
	.st11{fill-rule:evenodd;clip-rule:evenodd;fill:#FFFFFF;}
	.st12{fill:#41474F;}
	.st13{fill:#036AAA;}
	.st14{fill-rule:evenodd;clip-rule:evenodd;fill:#41474F;}
	.st15{fill-rule:evenodd;clip-rule:evenodd;fill:#036AAA;}
	.st16{fill:#050505;}
	.st17{opacity:0.2;fill:#1B558A;}
	
		.st18{clip-path:url(#SVGID_00000016794348094866101380000006074110922522023598_);fill:url(#SVGID_00000048496094070512129640000018398560475836921766_);}
	.st19{fill:none;stroke:#318DCC;stroke-width:4;stroke-miterlimit:10;}
	.st20{clip-path:url(#SVGID_00000083062823400708728310000002545735230958044039_);}
	.st21{fill:none;stroke:#28404F;stroke-width:2;stroke-miterlimit:10;}
	.st22{fill:#38434B;}
	.st23{fill:#318DCC;}
	.st24{fill:url(#SVGID_00000008835743330479101800000011304266548611659961_);}
	.st25{fill:none;}
	.st26{opacity:0.6;fill:url(#SVGID_00000119078325872644942950000018278488059436261565_);}
	.st27{fill:url(#SVGID_00000165213076587872291990000003091071830409922494_);}
	.st28{fill:url(#SVGID_00000054256808414745673380000016876956547911999919_);}
	.st29{opacity:0.4;fill:url(#SVGID_00000078734348362491321470000007460941528665237928_);}
	.st30{fill:url(#SVGID_00000175298154084237138490000008967874470848234171_);}
	.st31{fill:url(#SVGID_00000014615235707079120260000015392532535967484601_);}
	.st32{opacity:0.6;fill:url(#SVGID_00000001628983127239068730000011235201793833451156_);}
	.st33{fill:url(#SVGID_00000174582012287122228590000001055656091753230484_);}
	.st34{fill:url(#SVGID_00000134957153693140302050000010697069520809871245_);}
	.st35{opacity:0.4;fill:url(#SVGID_00000088112351288352449070000018270839698219322810_);}
	.st36{fill:url(#SVGID_00000018231840659179584510000011259451689047947199_);}
	.st37{fill:url(#SVGID_00000056416428410006297940000013369823813414782621_);}
	.st38{opacity:0.6;fill:url(#SVGID_00000085929313368652857890000003934173629871111046_);}
	.st39{fill:url(#SVGID_00000134949156341550846080000009631540568500464294_);}
	.st40{fill:url(#SVGID_00000078003389432125752490000009612021563101176709_);}
	.st41{opacity:0.4;fill:url(#SVGID_00000067922364223896437660000013162656456288772996_);}
	.st42{fill:url(#SVGID_00000127033254540470526950000003464486545522271889_);}
	.st43{fill:url(#SVGID_00000152958477855781776080000008102556473078271669_);}
	.st44{opacity:0.6;fill:url(#SVGID_00000134223264735228999290000016042008452564508567_);}
	.st45{fill:url(#SVGID_00000156579802701566751170000013511450115985932422_);}
	.st46{fill:url(#SVGID_00000002351428495474010090000002279864091719756681_);}
	.st47{opacity:0.4;fill:url(#SVGID_00000165228563770677062680000002451145101440226952_);}
	.st48{fill:url(#SVGID_00000016772400837759900860000001015042426266196876_);}
	.st49{fill:url(#SVGID_00000077286690260120646060000009491762463758508188_);}
	.st50{opacity:0.6;fill:url(#SVGID_00000026132397589541783940000017357890839752179631_);}
	.st51{fill:url(#SVGID_00000046341710927108962240000000775389438930261644_);}
	.st52{fill:url(#SVGID_00000038406362555156769270000013126706648230399932_);}
	.st53{opacity:0.4;fill:url(#SVGID_00000036247689937193775090000008388793731226599612_);}
	.st54{fill:url(#SVGID_00000161603644298380009730000008778539250558022582_);}
	.st55{fill:url(#SVGID_00000143598039850288230230000017482059186456239529_);}
	.st56{opacity:0.6;fill:url(#SVGID_00000085243528786917309270000007739065060230725816_);}
	.st57{fill:url(#SVGID_00000025405085687604527370000011447608624038690184_);}
	.st58{fill:url(#SVGID_00000097460216685448143850000007718815779163673479_);}
	.st59{opacity:0.4;fill:url(#SVGID_00000121993864514124486340000006976387496607646645_);}
	.st60{fill:url(#SVGID_00000029007742090397784960000017609400652942153624_);}
	.st61{fill:url(#SVGID_00000152222958265698898710000015973933835161242516_);}
	.st62{fill:none;stroke:#38434B;stroke-miterlimit:10;}
	.st63{fill:url(#SVGID_00000101813941616664209300000003368893192345405870_);}
	.st64{fill:url(#SVGID_00000037673445426708083640000011333339353325325720_);}
	.st65{fill:url(#SVGID_00000027567972415203554320000016438388774380098207_);}
	.st66{fill:url(#SVGID_00000166650307917036852040000003284012312173167488_);}
	
		.st67{clip-path:url(#SVGID_00000099653991014273679250000014705605382388598207_);fill:url(#SVGID_00000137829978332783157070000000184246679257234068_);}
	.st68{fill:url(#SVGID_00000000905298272238709900000008125950276095799956_);}
	.st69{fill:url(#SVGID_00000168803790247536252470000015028415592336243096_);}
	.st70{fill:url(#SVGID_00000058561833639402753500000006278022374593541265_);}
	.st71{fill:url(#SVGID_00000141425603918929402600000005624059913364708790_);}
	.st72{fill:url(#SVGID_00000062159264929498358580000017636738549124827529_);}
	.st73{fill:url(#SVGID_00000070838835133029903660000009542345038530508684_);}
	.st74{fill:url(#SVGID_00000054240843507470069600000001216287648174998716_);}
	.st75{fill:url(#SVGID_00000132048187660053446670000008318577360523660990_);}
	.st76{fill:url(#SVGID_00000181076140662088239150000010930059968975340197_);}
	.st77{fill:url(#SVGID_00000180359411344200769690000007638353191840723636_);}
	.st78{fill:url(#SVGID_00000126297308049042016680000015173228902974393743_);}
	.st79{fill:url(#SVGID_00000104687622534302016230000010509134681812906175_);}
	.st80{fill:url(#SVGID_00000075881505414910894110000001095363058070750106_);}
	.st81{fill:url(#SVGID_00000165199917509770318580000010468880233282885506_);}
	.st82{fill:url(#SVGID_00000114046419550656254720000001167077338993642893_);}
</style>
<g>
	
		<radialGradient id="SVGID_00000176753514633049796730000013742457502305663127_" cx="-1649.7682" cy="-634.8563" r="103.8134" gradientTransform="matrix(0.6765 0 0 0.1 1238.6213 331.592)" gradientUnits="userSpaceOnUse">
		<stop  offset="0" style="stop-color:#000000"/>
		<stop  offset="0.1377" style="stop-color:#000000;stop-opacity:0.8623"/>
		<stop  offset="1" style="stop-color:#000000;stop-opacity:0"/>
	</radialGradient>
	
		<ellipse style="opacity:0.6;fill:url(#SVGID_00000176753514633049796730000013742457502305663127_);" cx="122.55" cy="268.11" rx="72.07" ry="11.74"/>
	
		<linearGradient id="SVGID_00000055667131946891726710000000538109406877368472_" gradientUnits="userSpaceOnUse" x1="52.4684" y1="167.9507" x2="155.7525" y2="126.0345">
		<stop  offset="0.0153" style="stop-color:#303030"/>
		<stop  offset="0.0888" style="stop-color:#3B3B3B"/>
		<stop  offset="0.5126" style="stop-color:#727272"/>
		<stop  offset="0.8289" style="stop-color:#949494"/>
		<stop  offset="1" style="stop-color:#A1A1A1"/>
	</linearGradient>
	<path style="fill:url(#SVGID_00000055667131946891726710000000538109406877368472_);" d="M206.2,99.1l-0.02,0
		c-1.01-45.32-38.06-81.75-83.63-81.75S39.94,53.78,38.93,99.1l-0.02,0c0,0.22,0.01,0.44,0.02,0.66c-0.01,0.42-0.02,0.83-0.02,1.25
		c0,9.43,1.56,18.49,4.44,26.95c17.28,60.84,79.21,140.37,79.21,140.37s61.93-79.53,79.21-140.37c2.88-8.46,4.44-17.52,4.44-26.95
		c0-0.42-0.01-0.83-0.02-1.25C206.19,99.53,206.2,99.31,206.2,99.1z M122.55,164.28c-33.85,0-61.3-27.44-61.3-61.3
		s27.44-61.3,61.3-61.3s61.3,27.44,61.3,61.3S156.41,164.28,122.55,164.28z"/>
	
		<linearGradient id="SVGID_00000098943900914654560690000007709756213447328946_" gradientUnits="userSpaceOnUse" x1="50.1154" y1="184.5102" x2="169.0879" y2="50.6129">
		<stop  offset="0.2902" style="stop-color:#D1D1D1"/>
		<stop  offset="0.6717" style="stop-color:#787878"/>
		<stop  offset="1" style="stop-color:#292929"/>
	</linearGradient>
	<circle style="fill:url(#SVGID_00000098943900914654560690000007709756213447328946_);" cx="122.55" cy="102.99" r="67.63"/>
	
		<radialGradient id="SVGID_00000081647065911747825230000009560322990947870092_" cx="115.821" cy="131.7721" r="47.4703" gradientTransform="matrix(1 0 0 3.3373 0 -307.9948)" gradientUnits="userSpaceOnUse">
		<stop  offset="0" style="stop-color:#FFFFFF"/>
		<stop  offset="1" style="stop-color:#FFFFFF;stop-opacity:0"/>
	</radialGradient>
	<path style="opacity:0.4;fill:url(#SVGID_00000081647065911747825230000009560322990947870092_);" d="M206.2,99.1l-0.02,0
		c-1.01-45.32-38.06-81.75-83.63-81.75S39.94,53.78,38.93,99.1l-0.02,0c0,0.22,0.01,0.44,0.02,0.66c-0.01,0.42-0.02,0.83-0.02,1.25
		c0,9.43,1.56,18.49,4.44,26.95c17.28,60.84,79.21,140.37,79.21,140.37s61.93-79.53,79.21-140.37c2.88-8.46,4.44-17.52,4.44-26.95
		c0-0.42-0.01-0.83-0.02-1.25C206.19,99.53,206.2,99.31,206.2,99.1z M122.55,164.28c-33.85,0-61.3-27.44-61.3-61.3
		s27.44-61.3,61.3-61.3s61.3,27.44,61.3,61.3S156.41,164.28,122.55,164.28z"/>
	
		<radialGradient id="SVGID_00000071529085073513410730000014458536573205864632_" cx="140.6302" cy="73.6898" r="116.438" gradientUnits="userSpaceOnUse">
		<stop  offset="0.0317" style="stop-color:#F7F7F7"/>
		<stop  offset="0.4354" style="stop-color:#F5F5F5"/>
		<stop  offset="0.5808" style="stop-color:#EEEEEE"/>
		<stop  offset="0.6845" style="stop-color:#E3E3E3"/>
		<stop  offset="0.7683" style="stop-color:#D2D2D2"/>
		<stop  offset="0.84" style="stop-color:#BCBCBC"/>
		<stop  offset="0.9024" style="stop-color:#A1A1A1"/>
		<stop  offset="0.9586" style="stop-color:#828282"/>
		<stop  offset="0.9612" style="stop-color:#808080"/>
	</radialGradient>
	<circle style="fill:url(#SVGID_00000071529085073513410730000014458536573205864632_);" cx="122.55" cy="102.99" r="61.34"/>
	
		<linearGradient id="SVGID_00000104669388094188570010000004106331412399482536_" gradientUnits="userSpaceOnUse" x1="38.9028" y1="142.8328" x2="206.2036" y2="142.8328">
		<stop  offset="0" style="stop-color:#72CFC4"/>
		<stop  offset="1" style="stop-color:#007172"/>
	</linearGradient>
	<path style="fill:url(#SVGID_00000104669388094188570010000004106331412399482536_);" d="M206.2,99.1l-0.02,0
		c-1.01-45.32-38.06-81.75-83.63-81.75S39.94,53.78,38.93,99.1l-0.02,0c0,0.22,0.01,0.44,0.02,0.66c-0.01,0.42-0.02,0.83-0.02,1.25
		c0,9.43,1.56,18.49,4.44,26.95c17.28,60.84,79.21,140.37,79.21,140.37s61.93-79.53,79.21-140.37c2.88-8.46,4.44-17.52,4.44-26.95
		c0-0.42-0.01-0.83-0.02-1.25C206.19,99.53,206.2,99.31,206.2,99.1z M122.55,164.28c-33.85,0-61.3-27.44-61.3-61.3
		s27.44-61.3,61.3-61.3s61.3,27.44,61.3,61.3S156.41,164.28,122.55,164.28z"/>
	<g>
		<path class="st7" d="M79.87,120.4c0.45-0.48,1.09-0.79,1.79-0.79c1.37,0,2.48,1,2.48,2.44v4.13h-2.88v-1.01h1.77v-3.14
			c0-0.76-0.61-1.37-1.37-1.37c-0.67,0-1.23,0.48-1.34,1.12l-0.77,4.4h-1.19l0.87-4.81l-1.08-0.67l0.64-0.97L79.87,120.4z
			 M85.53,121.89h-0.64l0.67-3h1.19L85.53,121.89z M87.16,121.89h-0.64l0.67-3h1.19L87.16,121.89z M94.07,119.73
			c0.46,0,0.74,0.38,0.63,0.79l-0.81,3.23c-0.34,1.33-0.78,1.76-2,2.07c-0.41,0.11-1.93,0.5-2.7,0.71l-0.26-1.01l1.71-0.48
			l-1.13-4.31h-0.73v-1h1.18c0.31,0,0.54,0.14,0.62,0.45l1.18,4.56l0.27-0.08c0.41-0.12,0.48-0.34,0.6-0.79l0.8-3.14H92.6v-1H94.07z
			 M95.36,126.35v-1.05l3.4-0.33v-4.25h-3.35v-1h3.96c0.3,0,0.55,0.25,0.55,0.55v4.57l0.83-0.07v1.03L95.36,126.35z M109.19,119.73
			c0.31,0,0.56,0.25,0.56,0.55v5.9h-1.17v-5.45h-2.63v5.45h-1.19v-5.45h-0.85v-1h5.3H109.19z M111.71,126.18v-5.45h-0.87v-1h1.5
			c0.3,0,0.55,0.25,0.55,0.55v5.9H111.71z M119.42,119.73c0.46,0,0.73,0.38,0.63,0.79l-0.85,3.45c-0.29,1.22-0.58,1.69-1.86,1.95
			l-1.91,0.38l-0.98-5.58h-0.61v-1h1.12c0.31,0,0.52,0.15,0.58,0.45l0.87,4.82l0.87-0.2c0.47-0.11,0.62-0.28,0.73-0.72l0.81-3.36
			h-1.69v-1H119.42z M121.74,123.08v-2.36h-1.14v-1h1.81c0.29,0,0.52,0.24,0.52,0.53v2.82H121.74z M123.8,126.35v-1.05l3.4-0.33
			v-4.25h-3.35v-1h3.96c0.3,0,0.55,0.25,0.55,0.55v4.57l0.83-0.07v1.03L123.8,126.35z M133.79,119.73c0.37,0,0.65,0.28,0.65,0.65
			c0,0.09-0.02,0.16-0.04,0.24c0,0-1.17,4.36-1.52,5.56h-1.25l1.5-5.45h-3.75v-2.67h1.18v1.67H133.79z M142.74,126.18v-5.45h-2.79
			v5.45h-2.48v-1.01h1.31v-4.44h-0.93v-1h5.5c0.31,0,0.56,0.25,0.56,0.55v5.9H142.74z M145.87,126.18v-5.45H145v-1h1.5
			c0.3,0,0.55,0.25,0.55,0.55v5.9H145.87z M148.01,126.18v-1.01h1.64v-4.44h-1.11v-1h1.73c0.3,0,0.55,0.25,0.55,0.55v5.9H148.01z
			 M155.34,120.73h-3.49v-1h4.11c0.3,0,0.55,0.25,0.55,0.55v5.1c0,0.23-0.2,0.52-0.48,0.55l-4.24,0.41v-1.05l3.54-0.35V120.73z
			 M158.49,126.18v-5.45h-0.87v-1h1.5c0.3,0,0.55,0.25,0.55,0.55v5.9H158.49z M166.33,124.16c-0.21,1.46-1.01,2.19-2.29,2.19
			c-1.39,0-2.1-0.92-2.26-2.23l-0.42-3.4h-0.73v-1h6.32L166.33,124.16z M163,124.24c0.08,0.63,0.41,1.04,1.04,1.04
			c0.66,0,0.97-0.4,1.05-1.04l0.51-3.51h-3.02L163,124.24z"/>
		<path class="st7" d="M164.91,91.19c0.21-1.31,0.46-5.24,0.46-5.24h-25.14v5.32h2.75l1.52,12.34c0.59,4.73,4.35,7.98,9.13,7.98
			c5.07,0,8.45-3.38,9.21-7.98L164.91,91.19z M150.63,103.23l-1.48-11.96h9.38l-1.73,11.91c-0.25,1.86-1.35,2.87-3.17,2.87
			C152.15,106.06,150.84,105,150.63,103.23 M123.81,85.95v-6.51h-6.29v11.83h14.36L126,111.05h6.59l6.13-20.7
			c0.63-2.2-0.89-4.39-3.3-4.39H123.81z M115.19,90.01c0.51-2.2-0.84-4.06-3.17-4.06h-6.08v5.32h2.87l-2.37,10.22
			c-0.34,1.48-1.18,2.37-2.49,2.79l-0.51,0.17L99.6,88.23c-0.42-1.82-1.65-2.28-2.83-2.28h-5.28v5.32h2.79l3.51,14.91l-5.53,1.61
			l1.27,5.28c2.07-0.59,8.45-2.45,9.97-2.83c5.11-1.31,8.07-4.1,9.08-8.62L115.19,90.01z"/>
		<path class="st8" d="M83.66,113.07c2.74,0,4.96-2.22,4.96-4.96c0-2.74-2.22-4.96-4.96-4.96c-2.74,0-4.96,2.22-4.96,4.96
			C78.7,110.85,80.92,113.07,83.66,113.07"/>
	</g>
</g>
</svg>
